{
    "asset" : {
        "generator" : "Khronos glTF Blender I/O v1.0.5",
        "version" : "2.0"
    },
    "scene" : 0,
    "scenes" : [
        {
            "name" : "Scene",
            "nodes" : [
                0
            ]
        }
    ],
    "nodes" : [
        {
            "mesh" : 0,
            "name" : "battery",
            "scale" : [
                0.06654516607522964,
                0.13891440629959106,
                0.06654516607522964
            ],
            "translation" : [
                -0.4095216393470764,
                2.1290860176086426,
                0.6471744775772095
            ]
        }
    ],
    "materials" : [
        {
            "doubleSided" : true,
            "name" : "Material.009",
            "pbrMetallicRoughness" : {
                "baseColorFactor" : [
                    0.0858137458562851,
                    0.07112091034650803,
                    0.056259237229824066,
                    1
                ],
                "metallicFactor" : 1,
                "roughnessFactor" : 0.800000011920929
            }
        },
        {
            "doubleSided" : true,
            "name" : "Material.010",
            "pbrMetallicRoughness" : {
                "baseColorFactor" : [
                    0.800000011920929,
                    0.800000011920929,
                    0.800000011920929,
                    1
                ],
                "metallicFactor" : 0,
                "roughnessFactor" : 0.30000001192092896
            }
        },
        {
            "doubleSided" : true,
            "name" : "Material.012",
            "pbrMetallicRoughness" : {
                "baseColorFactor" : [
                    0.5250466465950012,
                    0.4345865249633789,
                    0.35521888732910156,
                    1
                ],
                "metallicFactor" : 0,
                "roughnessFactor" : 0.5
            }
        }
    ],
    "meshes" : [
        {
            "name" : "Cylinder",
            "primitives" : [
                {
                    "attributes" : {
                        "POSITION" : 0,
                        "NORMAL" : 1,
                        "TEXCOORD_0" : 2
                    },
                    "indices" : 3,
                    "material" : 0
                },
                {
                    "attributes" : {
                        "POSITION" : 4,
                        "NORMAL" : 5,
                        "TEXCOORD_0" : 6
                    },
                    "indices" : 7,
                    "material" : 1
                },
                {
                    "attributes" : {
                        "POSITION" : 8,
                        "NORMAL" : 9,
                        "TEXCOORD_0" : 10
                    },
                    "indices" : 11,
                    "material" : 2
                }
            ]
        }
    ],
    "accessors" : [
        {
            "bufferView" : 0,
            "componentType" : 5126,
            "count" : 228,
            "max" : [
                1,
                1,
                1
            ],
            "min" : [
                -1,
                -1,
                -1
            ],
            "type" : "VEC3"
        },
        {
            "bufferView" : 1,
            "componentType" : 5126,
            "count" : 228,
            "type" : "VEC3"
        },
        {
            "bufferView" : 2,
            "componentType" : 5126,
            "count" : 228,
            "type" : "VEC2"
        },
        {
            "bufferView" : 3,
            "componentType" : 5123,
            "count" : 666,
            "type" : "SCALAR"
        },
        {
            "bufferView" : 4,
            "componentType" : 5126,
            "count" : 66,
            "max" : [
                1,
                0.6719826459884644,
                1
            ],
            "min" : [
                -1,
                -0.4634120762348175,
                -1
            ],
            "type" : "VEC3"
        },
        {
            "bufferView" : 5,
            "componentType" : 5126,
            "count" : 66,
            "type" : "VEC3"
        },
        {
            "bufferView" : 6,
            "componentType" : 5126,
            "count" : 66,
            "type" : "VEC2"
        },
        {
            "bufferView" : 7,
            "componentType" : 5123,
            "count" : 192,
            "type" : "SCALAR"
        },
        {
            "bufferView" : 8,
            "componentType" : 5126,
            "count" : 64,
            "max" : [
                0.5648990869522095,
                1.1035555601119995,
                0.5648990869522095
            ],
            "min" : [
                -0.5648990869522095,
                1,
                -0.5648990869522095
            ],
            "type" : "VEC3"
        },
        {
            "bufferView" : 9,
            "componentType" : 5126,
            "count" : 64,
            "type" : "VEC3"
        },
        {
            "bufferView" : 10,
            "componentType" : 5126,
            "count" : 64,
            "type" : "VEC2"
        },
        {
            "bufferView" : 11,
            "componentType" : 5123,
            "count" : 282,
            "type" : "SCALAR"
        }
    ],
    "bufferViews" : [
        {
            "buffer" : 0,
            "byteLength" : 2736,
            "byteOffset" : 0
        },
        {
            "buffer" : 0,
            "byteLength" : 2736,
            "byteOffset" : 2736
        },
        {
            "buffer" : 0,
            "byteLength" : 1824,
            "byteOffset" : 5472
        },
        {
            "buffer" : 0,
            "byteLength" : 1332,
            "byteOffset" : 7296
        },
        {
            "buffer" : 0,
            "byteLength" : 792,
            "byteOffset" : 8628
        },
        {
            "buffer" : 0,
            "byteLength" : 792,
            "byteOffset" : 9420
        },
        {
            "buffer" : 0,
            "byteLength" : 528,
            "byteOffset" : 10212
        },
        {
            "buffer" : 0,
            "byteLength" : 384,
            "byteOffset" : 10740
        },
        {
            "buffer" : 0,
            "byteLength" : 768,
            "byteOffset" : 11124
        },
        {
            "buffer" : 0,
            "byteLength" : 768,
            "byteOffset" : 11892
        },
        {
            "buffer" : 0,
            "byteLength" : 512,
            "byteOffset" : 12660
        },
        {
            "buffer" : 0,
            "byteLength" : 564,
            "byteOffset" : 13172
        }
    ],
    "buffers" : [
        {
            "byteLength" : 13736,
            "uri" : "data:application/octet-stream;base64,"
        }
    ]
}
