{
    "asset" : {
        "generator" : "Khronos glTF Blender I/O v1.0.5",
        "version" : "2.0"
    },
    "scene" : 0,
    "scenes" : [
        {
            "name" : "Scene",
            "nodes" : [
                0
            ]
        }
    ],
    "nodes" : [
        {
            "mesh" : 0,
            "name" : "floor",
            "translation" : [
                0.6614051461219788,
                0,
                0.7740796804428101
            ]
        }
    ],
    "materials" : [
        {
            "doubleSided" : true,
            "name" : "Material.001",
            "pbrMetallicRoughness" : {
                "baseColorFactor" : [
                    0.25141841173171997,
                    0.1075550839304924,
                    0.04542723298072815,
                    1
                ],
                "metallicFactor" : 0,
                "roughnessFactor" : 1
            }
        },
        {
            "doubleSided" : true,
            "name" : "Material.002",
            "pbrMetallicRoughness" : {
                "baseColorFactor" : [
                    0.36723822355270386,
                    0.17595401406288147,
                    0.07530942559242249,
                    1
                ],
                "metallicFactor" : 0,
                "roughnessFactor" : 1
            }
        },
        {
            "doubleSided" : true,
            "name" : "Material",
            "pbrMetallicRoughness" : {
                "baseColorFactor" : [
                    0.3588409125804901,
                    0.19502876698970795,
                    0.06903199106454849,
                    1
                ],
                "metallicFactor" : 0,
                "roughnessFactor" : 1
            }
        },
        {
            "doubleSided" : true,
            "name" : "Material.004",
            "pbrMetallicRoughness" : {
                "baseColorFactor" : [
                    0.3588409125804901,
                    0.18759962916374207,
                    0.10274042934179306,
                    1
                ],
                "metallicFactor" : 0,
                "roughnessFactor" : 1
            }
        },
        {
            "doubleSided" : true,
            "name" : "Material.003",
            "pbrMetallicRoughness" : {
                "baseColorFactor" : [
                    0.3108133375644684,
                    0.12845902144908905,
                    0.06257688999176025,
                    1
                ],
                "metallicFactor" : 0,
                "roughnessFactor" : 1
            }
        }
    ],
    "meshes" : [
        {
            "name" : "Cube.006",
            "primitives" : [
                {
                    "attributes" : {
                        "POSITION" : 0,
                        "NORMAL" : 1,
                        "TEXCOORD_0" : 2
                    },
                    "indices" : 3,
                    "material" : 0
                },
                {
                    "attributes" : {
                        "POSITION" : 4,
                        "NORMAL" : 5,
                        "TEXCOORD_0" : 6
                    },
                    "indices" : 7,
                    "material" : 1
                },
                {
                    "attributes" : {
                        "POSITION" : 8,
                        "NORMAL" : 9,
                        "TEXCOORD_0" : 10
                    },
                    "indices" : 11,
                    "material" : 2
                },
                {
                    "attributes" : {
                        "POSITION" : 12,
                        "NORMAL" : 13,
                        "TEXCOORD_0" : 14
                    },
                    "indices" : 15,
                    "material" : 3
                },
                {
                    "attributes" : {
                        "POSITION" : 16,
                        "NORMAL" : 17,
                        "TEXCOORD_0" : 18
                    },
                    "indices" : 19,
                    "material" : 4
                }
            ]
        }
    ],
    "accessors" : [
        {
            "bufferView" : 0,
            "componentType" : 5126,
            "count" : 246,
            "max" : [
                3.0767009258270264,
                0.13204194605350494,
                3.6900272369384766
            ],
            "min" : [
                -4.376471042633057,
                -0.10857600718736649,
                -5.839832305908203
            ],
            "type" : "VEC3"
        },
        {
            "bufferView" : 1,
            "componentType" : 5126,
            "count" : 246,
            "type" : "VEC3"
        },
        {
            "bufferView" : 2,
            "componentType" : 5126,
            "count" : 246,
            "type" : "VEC2"
        },
        {
            "bufferView" : 3,
            "componentType" : 5123,
            "count" : 804,
            "type" : "SCALAR"
        },
        {
            "bufferView" : 4,
            "componentType" : 5126,
            "count" : 188,
            "max" : [
                2.373603105545044,
                0.10566350817680359,
                3.6979684829711914
            ],
            "min" : [
                -4.361563205718994,
                -0.10857575386762619,
                -5.427829742431641
            ],
            "type" : "VEC3"
        },
        {
            "bufferView" : 5,
            "componentType" : 5126,
            "count" : 188,
            "type" : "VEC3"
        },
        {
            "bufferView" : 6,
            "componentType" : 5126,
            "count" : 188,
            "type" : "VEC2"
        },
        {
            "bufferView" : 7,
            "componentType" : 5123,
            "count" : 612,
            "type" : "SCALAR"
        },
        {
            "bufferView" : 8,
            "componentType" : 5126,
            "count" : 64,
            "max" : [
                -0.29298335313796997,
                0.08499377220869064,
                -0.19402694702148438
            ],
            "min" : [
                -1.5710382461547852,
                -0.08865988254547119,
                -3.9712412357330322
            ],
            "type" : "VEC3"
        },
        {
            "bufferView" : 9,
            "componentType" : 5126,
            "count" : 64,
            "type" : "VEC3"
        },
        {
            "bufferView" : 10,
            "componentType" : 5126,
            "count" : 64,
            "type" : "VEC2"
        },
        {
            "bufferView" : 11,
            "componentType" : 5123,
            "count" : 216,
            "type" : "SCALAR"
        },
        {
            "bufferView" : 12,
            "componentType" : 5126,
            "count" : 208,
            "max" : [
                3.082085132598877,
                0.1056634858250618,
                4.739371299743652
            ],
            "min" : [
                -5.06046724319458,
                -0.10857576876878738,
                -4.76820182800293
            ],
            "type" : "VEC3"
        },
        {
            "bufferView" : 13,
            "componentType" : 5126,
            "count" : 208,
            "type" : "VEC3"
        },
        {
            "bufferView" : 14,
            "componentType" : 5126,
            "count" : 208,
            "type" : "VEC2"
        },
        {
            "bufferView" : 15,
            "componentType" : 5123,
            "count" : 672,
            "type" : "SCALAR"
        },
        {
            "bufferView" : 16,
            "componentType" : 5126,
            "count" : 180,
            "max" : [
                3.7550039291381836,
                0.1056634858250618,
                2.637984275817871
            ],
            "min" : [
                -3.0463531017303467,
                -0.10857576876878738,
                -4.8652143478393555
            ],
            "type" : "VEC3"
        },
        {
            "bufferView" : 17,
            "componentType" : 5126,
            "count" : 180,
            "type" : "VEC3"
        },
        {
            "bufferView" : 18,
            "componentType" : 5126,
            "count" : 180,
            "type" : "VEC2"
        },
        {
            "bufferView" : 19,
            "componentType" : 5123,
            "count" : 600,
            "type" : "SCALAR"
        }
    ],
    "bufferViews" : [
        {
            "buffer" : 0,
            "byteLength" : 2952,
            "byteOffset" : 0
        },
        {
            "buffer" : 0,
            "byteLength" : 2952,
            "byteOffset" : 2952
        },
        {
            "buffer" : 0,
            "byteLength" : 1968,
            "byteOffset" : 5904
        },
        {
            "buffer" : 0,
            "byteLength" : 1608,
            "byteOffset" : 7872
        },
        {
            "buffer" : 0,
            "byteLength" : 2256,
            "byteOffset" : 9480
        },
        {
            "buffer" : 0,
            "byteLength" : 2256,
            "byteOffset" : 11736
        },
        {
            "buffer" : 0,
            "byteLength" : 1504,
            "byteOffset" : 13992
        },
        {
            "buffer" : 0,
            "byteLength" : 1224,
            "byteOffset" : 15496
        },
        {
            "buffer" : 0,
            "byteLength" : 768,
            "byteOffset" : 16720
        },
        {
            "buffer" : 0,
            "byteLength" : 768,
            "byteOffset" : 17488
        },
        {
            "buffer" : 0,
            "byteLength" : 512,
            "byteOffset" : 18256
        },
        {
            "buffer" : 0,
            "byteLength" : 432,
            "byteOffset" : 18768
        },
        {
            "buffer" : 0,
            "byteLength" : 2496,
            "byteOffset" : 19200
        },
        {
            "buffer" : 0,
            "byteLength" : 2496,
            "byteOffset" : 21696
        },
        {
            "buffer" : 0,
            "byteLength" : 1664,
            "byteOffset" : 24192
        },
        {
            "buffer" : 0,
            "byteLength" : 1344,
            "byteOffset" : 25856
        },
        {
            "buffer" : 0,
            "byteLength" : 2160,
            "byteOffset" : 27200
        },
        {
            "buffer" : 0,
            "byteLength" : 2160,
            "byteOffset" : 29360
        },
        {
            "buffer" : 0,
            "byteLength" : 1440,
            "byteOffset" : 31520
        },
        {
            "buffer" : 0,
            "byteLength" : 1200,
            "byteOffset" : 32960
        }
    ],
    "buffers" : [
        {
            "byteLength" : 34160,
            "uri" : "data:application/octet-stream;base64,"
        }
    ]
}
