{
    "asset" : {
        "generator" : "Khronos glTF Blender I/O v1.0.5",
        "version" : "2.0"
    },
    "scene" : 0,
    "scenes" : [
        {
            "name" : "Scene",
            "nodes" : [
                0,
                1,
                2
            ]
        },
        {
            "name" : "Scene.001"
        }
    ],
    "nodes" : [
        {
            "mesh" : 0,
            "name" : "guage.001",
            "rotation" : [
                0.7071067690849304,
                0,
                0,
                0.7071067690849304
            ],
            "scale" : [
                0.30000877380371094,
                0.30000877380371094,
                0.30000877380371094
            ],
            "translation" : [
                0,
                2.5453054904937744,
                -1.5555145740509033
            ]
        },
        {
            "mesh" : 1,
            "name" : "housing.001",
            "scale" : [
                0.30000877380371094,
                0.30000877380371094,
                0.30000877380371094
            ],
            "translation" : [
                0,
                2.319538116455078,
                -1.555426836013794
            ]
        },
        {
            "mesh" : 2,
            "name" : "pekare.001",
            "rotation" : [
                0.7071067690849304,
                0,
                0,
                0.7071067690849304
            ],
            "scale" : [
                0.15530160069465637,
                0.15530160069465637,
                0.15530160069465637
            ],
            "translation" : [
                0,
                2.5453054904937744,
                -1.4887349605560303
            ]
        }
    ],
    "materials" : [
        {
            "doubleSided" : true,
            "name" : "pointerMat.006",
            "pbrMetallicRoughness" : {
                "baseColorFactor" : [
                    0.7261478304862976,
                    0.6604039669036865,
                    0.8688850998878479,
                    1
                ],
                "metallicFactor" : 0,
                "roughnessFactor" : 1
            }
        },
        {
            "doubleSided" : true,
            "name" : "pointerMat.005",
            "pbrMetallicRoughness" : {
                "baseColorFactor" : [
                    0.051871832460165024,
                    0.04775413125753403,
                    0.060719482600688934,
                    1
                ],
                "metallicFactor" : 0,
                "roughnessFactor" : 1
            }
        },
        {
            "doubleSided" : true,
            "name" : "pointerMat.004",
            "pbrMetallicRoughness" : {
                "baseColorFactor" : [
                    0.015994884073734283,
                    0.01494772732257843,
                    0.01494772732257843,
                    1
                ],
                "metallicFactor" : 0,
                "roughnessFactor" : 1
            }
        },
        {
            "doubleSided" : true,
            "name" : "Material.014",
            "pbrMetallicRoughness" : {
                "baseColorFactor" : [
                    0.48093390464782715,
                    0.5239716172218323,
                    0.6151769757270813,
                    1
                ],
                "metallicFactor" : 1,
                "roughnessFactor" : 0.38181817531585693
            }
        },
        {
            "doubleSided" : true,
            "name" : "Material.015",
            "pbrMetallicRoughness" : {
                "baseColorFactor" : [
                    0.015424136072397232,
                    0.014230086468160152,
                    0.018848644569516182,
                    1
                ],
                "metallicFactor" : 0,
                "roughnessFactor" : 1
            }
        },
        {
            "doubleSided" : true,
            "name" : "pointerMat.007",
            "pbrMetallicRoughness" : {
                "baseColorFactor" : [
                    0.8000000715255737,
                    0.02099871076643467,
                    0,
                    1
                ],
                "metallicFactor" : 0,
                "roughnessFactor" : 1
            }
        }
    ],
    "meshes" : [
        {
            "name" : "Cylinder.011",
            "primitives" : [
                {
                    "attributes" : {
                        "POSITION" : 0,
                        "NORMAL" : 1,
                        "TEXCOORD_0" : 2
                    },
                    "indices" : 3,
                    "material" : 0
                },
                {
                    "attributes" : {
                        "POSITION" : 4,
                        "NORMAL" : 5,
                        "TEXCOORD_0" : 6
                    },
                    "indices" : 7,
                    "material" : 1
                },
                {
                    "attributes" : {
                        "POSITION" : 8,
                        "NORMAL" : 9,
                        "TEXCOORD_0" : 10
                    },
                    "indices" : 11,
                    "material" : 2
                },
                {
                    "attributes" : {
                        "POSITION" : 12,
                        "NORMAL" : 13,
                        "TEXCOORD_0" : 14
                    },
                    "indices" : 15,
                    "material" : 3
                }
            ]
        },
        {
            "name" : "Cube.056",
            "primitives" : [
                {
                    "attributes" : {
                        "POSITION" : 16,
                        "NORMAL" : 17,
                        "TEXCOORD_0" : 18
                    },
                    "indices" : 19,
                    "material" : 4
                },
                {
                    "attributes" : {
                        "POSITION" : 20,
                        "NORMAL" : 21,
                        "TEXCOORD_0" : 22
                    },
                    "indices" : 23,
                    "material" : 3
                }
            ]
        },
        {
            "name" : "Plane.006",
            "primitives" : [
                {
                    "attributes" : {
                        "POSITION" : 24,
                        "NORMAL" : 25,
                        "TEXCOORD_0" : 26
                    },
                    "indices" : 27,
                    "material" : 5
                }
            ]
        }
    ],
    "accessors" : [
        {
            "bufferView" : 0,
            "componentType" : 5126,
            "count" : 61,
            "max" : [
                0.5142182111740112,
                0.21491923928260803,
                0.2856842875480652
            ],
            "min" : [
                -0.5142182111740112,
                0.21491923928260803,
                -0.5142182111740112
            ],
            "type" : "VEC3"
        },
        {
            "bufferView" : 1,
            "componentType" : 5126,
            "count" : 61,
            "type" : "VEC3"
        },
        {
            "bufferView" : 2,
            "componentType" : 5126,
            "count" : 61,
            "type" : "VEC2"
        },
        {
            "bufferView" : 3,
            "componentType" : 5123,
            "count" : 132,
            "type" : "SCALAR"
        },
        {
            "bufferView" : 4,
            "componentType" : 5126,
            "count" : 32,
            "max" : [
                0.4275568425655365,
                0.21491923928260803,
                0.5142182111740112
            ],
            "min" : [
                -0.4275570213794708,
                0.21491923928260803,
                0.05768868699669838
            ],
            "type" : "VEC3"
        },
        {
            "bufferView" : 5,
            "componentType" : 5126,
            "count" : 32,
            "type" : "VEC3"
        },
        {
            "bufferView" : 6,
            "componentType" : 5126,
            "count" : 32,
            "type" : "VEC2"
        },
        {
            "bufferView" : 7,
            "componentType" : 5123,
            "count" : 60,
            "type" : "SCALAR"
        },
        {
            "bufferView" : 8,
            "componentType" : 5126,
            "count" : 32,
            "max" : [
                0.10383705794811249,
                0.21491923928260803,
                0.1038370355963707
            ],
            "min" : [
                -0.10383705049753189,
                0.21491923928260803,
                -0.10383706539869308
            ],
            "type" : "VEC3"
        },
        {
            "bufferView" : 9,
            "componentType" : 5126,
            "count" : 32,
            "type" : "VEC3"
        },
        {
            "bufferView" : 10,
            "componentType" : 5126,
            "count" : 32,
            "type" : "VEC2"
        },
        {
            "bufferView" : 11,
            "componentType" : 5123,
            "count" : 90,
            "type" : "SCALAR"
        },
        {
            "bufferView" : 12,
            "componentType" : 5126,
            "count" : 352,
            "max" : [
                0.6000351905822754,
                0.2917068898677826,
                0.6000351905822754
            ],
            "min" : [
                -0.6000351905822754,
                0.008427679538726807,
                -0.6000351905822754
            ],
            "type" : "VEC3"
        },
        {
            "bufferView" : 13,
            "componentType" : 5126,
            "count" : 352,
            "type" : "VEC3"
        },
        {
            "bufferView" : 14,
            "componentType" : 5126,
            "count" : 352,
            "type" : "VEC2"
        },
        {
            "bufferView" : 15,
            "componentType" : 5123,
            "count" : 666,
            "type" : "SCALAR"
        },
        {
            "bufferView" : 16,
            "componentType" : 5126,
            "count" : 436,
            "max" : [
                1.3108385801315308,
                1.5051404237747192,
                0.3107961416244507
            ],
            "min" : [
                -1.3108385801315308,
                0,
                -0.3107961416244507
            ],
            "type" : "VEC3"
        },
        {
            "bufferView" : 17,
            "componentType" : 5126,
            "count" : 436,
            "type" : "VEC3"
        },
        {
            "bufferView" : 18,
            "componentType" : 5126,
            "count" : 436,
            "type" : "VEC2"
        },
        {
            "bufferView" : 19,
            "componentType" : 5123,
            "count" : 756,
            "type" : "SCALAR"
        },
        {
            "bufferView" : 20,
            "componentType" : 5126,
            "count" : 422,
            "max" : [
                1.3736639022827148,
                1.5659844875335693,
                0.12410040944814682
            ],
            "min" : [
                -1.3736639022827148,
                0,
                -0.12410040944814682
            ],
            "type" : "VEC3"
        },
        {
            "bufferView" : 21,
            "componentType" : 5126,
            "count" : 422,
            "type" : "VEC3"
        },
        {
            "bufferView" : 22,
            "componentType" : 5126,
            "count" : 422,
            "type" : "VEC2"
        },
        {
            "bufferView" : 23,
            "componentType" : 5123,
            "count" : 744,
            "type" : "SCALAR"
        },
        {
            "bufferView" : 24,
            "componentType" : 5126,
            "count" : 52,
            "max" : [
                0.07111480832099915,
                0.018829839304089546,
                0.07097068428993225
            ],
            "min" : [
                -0.06490598618984222,
                -0.020740769803524017,
                -0.9319013357162476
            ],
            "type" : "VEC3"
        },
        {
            "bufferView" : 25,
            "componentType" : 5126,
            "count" : 52,
            "type" : "VEC3"
        },
        {
            "bufferView" : 26,
            "componentType" : 5126,
            "count" : 52,
            "type" : "VEC2"
        },
        {
            "bufferView" : 27,
            "componentType" : 5123,
            "count" : 84,
            "type" : "SCALAR"
        }
    ],
    "bufferViews" : [
        {
            "buffer" : 0,
            "byteLength" : 732,
            "byteOffset" : 0
        },
        {
            "buffer" : 0,
            "byteLength" : 732,
            "byteOffset" : 732
        },
        {
            "buffer" : 0,
            "byteLength" : 488,
            "byteOffset" : 1464
        },
        {
            "buffer" : 0,
            "byteLength" : 264,
            "byteOffset" : 1952
        },
        {
            "buffer" : 0,
            "byteLength" : 384,
            "byteOffset" : 2216
        },
        {
            "buffer" : 0,
            "byteLength" : 384,
            "byteOffset" : 2600
        },
        {
            "buffer" : 0,
            "byteLength" : 256,
            "byteOffset" : 2984
        },
        {
            "buffer" : 0,
            "byteLength" : 120,
            "byteOffset" : 3240
        },
        {
            "buffer" : 0,
            "byteLength" : 384,
            "byteOffset" : 3360
        },
        {
            "buffer" : 0,
            "byteLength" : 384,
            "byteOffset" : 3744
        },
        {
            "buffer" : 0,
            "byteLength" : 256,
            "byteOffset" : 4128
        },
        {
            "buffer" : 0,
            "byteLength" : 180,
            "byteOffset" : 4384
        },
        {
            "buffer" : 0,
            "byteLength" : 4224,
            "byteOffset" : 4564
        },
        {
            "buffer" : 0,
            "byteLength" : 4224,
            "byteOffset" : 8788
        },
        {
            "buffer" : 0,
            "byteLength" : 2816,
            "byteOffset" : 13012
        },
        {
            "buffer" : 0,
            "byteLength" : 1332,
            "byteOffset" : 15828
        },
        {
            "buffer" : 0,
            "byteLength" : 5232,
            "byteOffset" : 17160
        },
        {
            "buffer" : 0,
            "byteLength" : 5232,
            "byteOffset" : 22392
        },
        {
            "buffer" : 0,
            "byteLength" : 3488,
            "byteOffset" : 27624
        },
        {
            "buffer" : 0,
            "byteLength" : 1512,
            "byteOffset" : 31112
        },
        {
            "buffer" : 0,
            "byteLength" : 5064,
            "byteOffset" : 32624
        },
        {
            "buffer" : 0,
            "byteLength" : 5064,
            "byteOffset" : 37688
        },
        {
            "buffer" : 0,
            "byteLength" : 3376,
            "byteOffset" : 42752
        },
        {
            "buffer" : 0,
            "byteLength" : 1488,
            "byteOffset" : 46128
        },
        {
            "buffer" : 0,
            "byteLength" : 624,
            "byteOffset" : 47616
        },
        {
            "buffer" : 0,
            "byteLength" : 624,
            "byteOffset" : 48240
        },
        {
            "buffer" : 0,
            "byteLength" : 416,
            "byteOffset" : 48864
        },
        {
            "buffer" : 0,
            "byteLength" : 168,
            "byteOffset" : 49280
        }
    ],
    "buffers" : [
        {
            "byteLength" : 49448,
            "uri" : "data:application/octet-stream;base64,"
        }
    ]
}
