{
    "asset" : {
        "generator" : "Khronos glTF Blender I/O v1.0.5",
        "version" : "2.0"
    },
    "scene" : 0,
    "scenes" : [
        {
            "name" : "Scene",
            "nodes" : [
                0,
                1
            ]
        }
    ],
    "nodes" : [
        {
            "mesh" : 0,
            "name" : "red_building",
            "scale" : [
                0.09185768663883209,
                0.09185768663883209,
                0.1264912188053131
            ],
            "translation" : [
                -0.7850340604782104,
                2.0965628623962402,
                -0.29970112442970276
            ]
        },
        {
            "mesh" : 1,
            "name" : "blue_building",
            "rotation" : [
                0,
                -0.4355287253856659,
                0,
                0.9001748561859131
            ],
            "scale" : [
                0.09185768663883209,
                0.09185768663883209,
                0.1264912188053131
            ],
            "translation" : [
                -0.5191034078598022,
                2.0965628623962402,
                -0.7583359479904175
            ]
        }
    ],
    "materials" : [
        {
            "doubleSided" : true,
            "name" : "Material.007",
            "pbrMetallicRoughness" : {
                "baseColorFactor" : [
                    0.3588409125804901,
                    0.09014828503131866,
                    0.07833188772201538,
                    1
                ],
                "metallicFactor" : 0,
                "roughnessFactor" : 1
            }
        },
        {
            "doubleSided" : true,
            "name" : "Material.006",
            "pbrMetallicRoughness" : {
                "baseColorFactor" : [
                    0.05401457101106644,
                    0.04558596387505531,
                    0.03239241987466812,
                    1
                ],
                "metallicFactor" : 0,
                "roughnessFactor" : 0.5
            }
        },
        {
            "doubleSided" : true,
            "name" : "Material.008",
            "pbrMetallicRoughness" : {
                "baseColorFactor" : [
                    0.18965080380439758,
                    0.16846026480197906,
                    0.3588409125804901,
                    1
                ],
                "metallicFactor" : 0,
                "roughnessFactor" : 1
            }
        }
    ],
    "meshes" : [
        {
            "name" : "Cube.041",
            "primitives" : [
                {
                    "attributes" : {
                        "POSITION" : 0,
                        "NORMAL" : 1,
                        "TEXCOORD_0" : 2
                    },
                    "indices" : 3,
                    "material" : 0
                },
                {
                    "attributes" : {
                        "POSITION" : 4,
                        "NORMAL" : 5,
                        "TEXCOORD_0" : 6
                    },
                    "indices" : 7,
                    "material" : 1
                }
            ]
        },
        {
            "name" : "Cube.046",
            "primitives" : [
                {
                    "attributes" : {
                        "POSITION" : 8,
                        "NORMAL" : 9,
                        "TEXCOORD_0" : 10
                    },
                    "indices" : 3,
                    "material" : 2
                },
                {
                    "attributes" : {
                        "POSITION" : 11,
                        "NORMAL" : 12,
                        "TEXCOORD_0" : 13
                    },
                    "indices" : 7,
                    "material" : 1
                }
            ]
        }
    ],
    "accessors" : [
        {
            "bufferView" : 0,
            "componentType" : 5126,
            "count" : 106,
            "max" : [
                1.6812639236450195,
                1.6198827028274536,
                1
            ],
            "min" : [
                -1,
                -1,
                -1
            ],
            "type" : "VEC3"
        },
        {
            "bufferView" : 1,
            "componentType" : 5126,
            "count" : 106,
            "type" : "VEC3"
        },
        {
            "bufferView" : 2,
            "componentType" : 5126,
            "count" : 106,
            "type" : "VEC2"
        },
        {
            "bufferView" : 3,
            "componentType" : 5123,
            "count" : 216,
            "type" : "SCALAR"
        },
        {
            "bufferView" : 4,
            "componentType" : 5126,
            "count" : 36,
            "max" : [
                1.6812639236450195,
                1.6198827028274536,
                1
            ],
            "min" : [
                -1,
                0.36875292658805847,
                -1
            ],
            "type" : "VEC3"
        },
        {
            "bufferView" : 5,
            "componentType" : 5126,
            "count" : 36,
            "type" : "VEC3"
        },
        {
            "bufferView" : 6,
            "componentType" : 5126,
            "count" : 36,
            "type" : "VEC2"
        },
        {
            "bufferView" : 7,
            "componentType" : 5123,
            "count" : 60,
            "type" : "SCALAR"
        },
        {
            "bufferView" : 8,
            "componentType" : 5126,
            "count" : 106,
            "max" : [
                1.6812639236450195,
                1.6198827028274536,
                1
            ],
            "min" : [
                -1,
                -1,
                -1
            ],
            "type" : "VEC3"
        },
        {
            "bufferView" : 9,
            "componentType" : 5126,
            "count" : 106,
            "type" : "VEC3"
        },
        {
            "bufferView" : 10,
            "componentType" : 5126,
            "count" : 106,
            "type" : "VEC2"
        },
        {
            "bufferView" : 11,
            "componentType" : 5126,
            "count" : 36,
            "max" : [
                1.6812639236450195,
                1.6198827028274536,
                1
            ],
            "min" : [
                -1,
                0.36875292658805847,
                -1
            ],
            "type" : "VEC3"
        },
        {
            "bufferView" : 12,
            "componentType" : 5126,
            "count" : 36,
            "type" : "VEC3"
        },
        {
            "bufferView" : 13,
            "componentType" : 5126,
            "count" : 36,
            "type" : "VEC2"
        }
    ],
    "bufferViews" : [
        {
            "buffer" : 0,
            "byteLength" : 1272,
            "byteOffset" : 0
        },
        {
            "buffer" : 0,
            "byteLength" : 1272,
            "byteOffset" : 1272
        },
        {
            "buffer" : 0,
            "byteLength" : 848,
            "byteOffset" : 2544
        },
        {
            "buffer" : 0,
            "byteLength" : 432,
            "byteOffset" : 3392
        },
        {
            "buffer" : 0,
            "byteLength" : 432,
            "byteOffset" : 3824
        },
        {
            "buffer" : 0,
            "byteLength" : 432,
            "byteOffset" : 4256
        },
        {
            "buffer" : 0,
            "byteLength" : 288,
            "byteOffset" : 4688
        },
        {
            "buffer" : 0,
            "byteLength" : 120,
            "byteOffset" : 4976
        },
        {
            "buffer" : 0,
            "byteLength" : 1272,
            "byteOffset" : 5096
        },
        {
            "buffer" : 0,
            "byteLength" : 1272,
            "byteOffset" : 6368
        },
        {
            "buffer" : 0,
            "byteLength" : 848,
            "byteOffset" : 7640
        },
        {
            "buffer" : 0,
            "byteLength" : 432,
            "byteOffset" : 8488
        },
        {
            "buffer" : 0,
            "byteLength" : 432,
            "byteOffset" : 8920
        },
        {
            "buffer" : 0,
            "byteLength" : 288,
            "byteOffset" : 9352
        }
    ],
    "buffers" : [
        {
            "byteLength" : 9640,
            "uri" : "data:application/octet-stream;base64,"
        }
    ]
}
