{
    "asset" : {
        "generator" : "Khronos glTF Blender I/O v1.0.5",
        "version" : "2.0"
    },
    "scene" : 0,
    "scenes" : [
        {
            "name" : "Scene",
            "nodes" : [
                0,
                1,
                2,
                3,
                4,
                5,
                6,
                7,
                8
            ]
        },
        {
            "name" : "Scene.001"
        }
    ],
    "nodes" : [
        {
            "mesh" : 0,
            "name" : "dorr.001",
            "rotation" : [
                -0.5,
                0.4999999701976776,
                0.4999999701976776,
                -0.5
            ],
            "scale" : [
                0.00794446375221014,
                -0.0427720881998539,
                0.003475676290690899
            ],
            "translation" : [
                0.2516007423400879,
                2.120713233947754,
                0.21212869882583618
            ]
        },
        {
            "mesh" : 1,
            "name" : "hus.018",
            "rotation" : [
                0,
                0.7071067690849304,
                0,
                -0.7071067690849304
            ],
            "scale" : [
                -0.1107005700469017,
                -0.06959087401628494,
                -0.08092203736305237
            ],
            "translation" : [
                0.33274737000465393,
                2.109386444091797,
                0.2189844846725464
            ]
        },
        {
            "mesh" : 2,
            "name" : "tak.018",
            "rotation" : [
                0,
                0.7071067690849304,
                0,
                -0.7071067690849304
            ],
            "scale" : [
                -0.1107005700469017,
                -0.06959087401628494,
                -0.08092203736305237
            ],
            "translation" : [
                0.33274737000465393,
                2.109386444091797,
                0.2189844846725464
            ]
        },
        {
            "mesh" : 3,
            "name" : "windowram.006",
            "rotation" : [
                0,
                0,
                -0.7071067690849304,
                -0.7071068286895752
            ],
            "scale" : [
                0.0327853262424469,
                0.0327853262424469,
                0.06154295802116394
            ],
            "translation" : [
                0.41452324390411377,
                2.0981409549713135,
                0.2220328152179718
            ]
        },
        {
            "mesh" : 4,
            "name" : "windowrik",
            "rotation" : [
                0,
                0,
                -0.7071067690849304,
                -0.7071068286895752
            ],
            "scale" : [
                0.0310183335095644,
                0.0310183335095644,
                0.058226048946380615
            ],
            "translation" : [
                0.41931962966918945,
                2.098386764526367,
                0.224691241979599
            ]
        },
        {
            "mesh" : 5,
            "name" : "windowrik.001",
            "rotation" : [
                -0.5000002384185791,
                -0.5000001788139343,
                -0.4999997913837433,
                -0.4999998211860657
            ],
            "scale" : [
                0.017848005518317223,
                0.017848005518317223,
                0.03350337594747543
            ],
            "translation" : [
                0.3329036235809326,
                2.086143970489502,
                0.10668522119522095
            ]
        },
        {
            "mesh" : 6,
            "name" : "windowram.005",
            "rotation" : [
                -0.5000002384185791,
                -0.5000001788139343,
                -0.4999997913837433,
                -0.4999998211860657
            ],
            "scale" : [
                0.018864737823605537,
                0.018864737823605537,
                0.035411931574344635
            ],
            "translation" : [
                0.3313739597797394,
                2.086002826690674,
                0.10944509506225586
            ]
        },
        {
            "mesh" : 7,
            "name" : "windowram.007",
            "rotation" : [
                -0.49999961256980896,
                -0.4999995827674866,
                0.5000003576278687,
                0.5000004172325134
            ],
            "scale" : [
                0.018864737823605537,
                0.018864737823605537,
                0.035411931574344635
            ],
            "translation" : [
                0.3326636552810669,
                2.086002826690674,
                0.3293437361717224
            ]
        },
        {
            "mesh" : 8,
            "name" : "windowrik.002",
            "rotation" : [
                -0.49999961256980896,
                -0.4999995827674866,
                0.5000003576278687,
                0.5000004172325134
            ],
            "scale" : [
                0.017848005518317223,
                0.017848005518317223,
                0.03350337594747543
            ],
            "translation" : [
                0.33113399147987366,
                2.086143970489502,
                0.3321036696434021
            ]
        }
    ],
    "materials" : [
        {
            "doubleSided" : true,
            "name" : "takrik",
            "pbrMetallicRoughness" : {
                "baseColorFactor" : [
                    0.020149853080511093,
                    0.02772972173988819,
                    0.2812045216560364,
                    1
                ],
                "metallicFactor" : 0,
                "roughnessFactor" : 0.5
            }
        },
        {
            "doubleSided" : true,
            "name" : "hus1.020",
            "pbrMetallicRoughness" : {
                "baseColorFactor" : [
                    0.8713560104370117,
                    0.7669259905815125,
                    0.49908918142318726,
                    1
                ],
                "metallicFactor" : 0,
                "roughnessFactor" : 0.5
            }
        },
        {
            "doubleSided" : true,
            "name" : "winow.060",
            "pbrMetallicRoughness" : {
                "baseColorFactor" : [
                    0.5462386608123779,
                    0.77250075340271,
                    0.8000000715255737,
                    1
                ],
                "metallicFactor" : 0,
                "roughnessFactor" : 0.5
            }
        },
        {
            "doubleSided" : true,
            "name" : "winow.063",
            "pbrMetallicRoughness" : {
                "baseColorFactor" : [
                    0.5462386608123779,
                    0.77250075340271,
                    0.8000000715255737,
                    1
                ],
                "metallicFactor" : 0,
                "roughnessFactor" : 0.5
            }
        },
        {
            "doubleSided" : true,
            "name" : "winow.066",
            "pbrMetallicRoughness" : {
                "baseColorFactor" : [
                    0.5462386608123779,
                    0.77250075340271,
                    0.8000000715255737,
                    1
                ],
                "metallicFactor" : 0,
                "roughnessFactor" : 0.5
            }
        }
    ],
    "meshes" : [
        {
            "name" : "Cube.2336",
            "primitives" : [
                {
                    "attributes" : {
                        "POSITION" : 0,
                        "NORMAL" : 1,
                        "TEXCOORD_0" : 2
                    },
                    "indices" : 3,
                    "material" : 0
                }
            ]
        },
        {
            "name" : "Cube.2334",
            "primitives" : [
                {
                    "attributes" : {
                        "POSITION" : 4,
                        "NORMAL" : 5,
                        "TEXCOORD_0" : 6
                    },
                    "indices" : 7,
                    "material" : 1
                }
            ]
        },
        {
            "name" : "Cube.2333",
            "primitives" : [
                {
                    "attributes" : {
                        "POSITION" : 8,
                        "NORMAL" : 9,
                        "TEXCOORD_0" : 10
                    },
                    "indices" : 11,
                    "material" : 0
                }
            ]
        },
        {
            "name" : "Plane.440",
            "primitives" : [
                {
                    "attributes" : {
                        "POSITION" : 12,
                        "NORMAL" : 13,
                        "TEXCOORD_0" : 14
                    },
                    "indices" : 15,
                    "material" : 0
                }
            ]
        },
        {
            "name" : "Plane.441",
            "primitives" : [
                {
                    "attributes" : {
                        "POSITION" : 16,
                        "NORMAL" : 17,
                        "TEXCOORD_0" : 18
                    },
                    "indices" : 19,
                    "material" : 2
                }
            ]
        },
        {
            "name" : "Plane.462",
            "primitives" : [
                {
                    "attributes" : {
                        "POSITION" : 20,
                        "NORMAL" : 21,
                        "TEXCOORD_0" : 22
                    },
                    "indices" : 19,
                    "material" : 3
                }
            ]
        },
        {
            "name" : "Plane.461",
            "primitives" : [
                {
                    "attributes" : {
                        "POSITION" : 23,
                        "NORMAL" : 24,
                        "TEXCOORD_0" : 25
                    },
                    "indices" : 15,
                    "material" : 0
                }
            ]
        },
        {
            "name" : "Plane.478",
            "primitives" : [
                {
                    "attributes" : {
                        "POSITION" : 26,
                        "NORMAL" : 27,
                        "TEXCOORD_0" : 28
                    },
                    "indices" : 29,
                    "material" : 0
                }
            ]
        },
        {
            "name" : "Plane.477",
            "primitives" : [
                {
                    "attributes" : {
                        "POSITION" : 30,
                        "NORMAL" : 31,
                        "TEXCOORD_0" : 32
                    },
                    "indices" : 19,
                    "material" : 4
                }
            ]
        }
    ],
    "accessors" : [
        {
            "bufferView" : 0,
            "componentType" : 5126,
            "count" : 288,
            "max" : [
                10.671363830566406,
                0.8525403738021851,
                2.2451958656311035
            ],
            "min" : [
                -1.455120325088501,
                -0.7981494665145874,
                -0.10766685009002686
            ],
            "type" : "VEC3"
        },
        {
            "bufferView" : 1,
            "componentType" : 5126,
            "count" : 288,
            "type" : "VEC3"
        },
        {
            "bufferView" : 2,
            "componentType" : 5126,
            "count" : 288,
            "type" : "VEC2"
        },
        {
            "bufferView" : 3,
            "componentType" : 5123,
            "count" : 396,
            "type" : "SCALAR"
        },
        {
            "bufferView" : 4,
            "componentType" : 5126,
            "count" : 328,
            "max" : [
                1.0926798582077026,
                1.0124179124832153,
                1.1082288026809692
            ],
            "min" : [
                -1.0945868492126465,
                -1,
                -1.1350611448287964
            ],
            "type" : "VEC3"
        },
        {
            "bufferView" : 5,
            "componentType" : 5126,
            "count" : 328,
            "type" : "VEC3"
        },
        {
            "bufferView" : 6,
            "componentType" : 5126,
            "count" : 328,
            "type" : "VEC2"
        },
        {
            "bufferView" : 7,
            "componentType" : 5123,
            "count" : 624,
            "type" : "SCALAR"
        },
        {
            "bufferView" : 8,
            "componentType" : 5126,
            "count" : 126,
            "max" : [
                1.1577215194702148,
                -0.07981813699007034,
                1.139615774154663
            ],
            "min" : [
                -1.149268388748169,
                -1.146582841873169,
                -1.152886152267456
            ],
            "type" : "VEC3"
        },
        {
            "bufferView" : 9,
            "componentType" : 5126,
            "count" : 126,
            "type" : "VEC3"
        },
        {
            "bufferView" : 10,
            "componentType" : 5126,
            "count" : 126,
            "type" : "VEC2"
        },
        {
            "bufferView" : 11,
            "componentType" : 5123,
            "count" : 216,
            "type" : "SCALAR"
        },
        {
            "bufferView" : 12,
            "componentType" : 5126,
            "count" : 40,
            "max" : [
                1,
                0,
                1
            ],
            "min" : [
                -1,
                -0.2041255682706833,
                -1
            ],
            "type" : "VEC3"
        },
        {
            "bufferView" : 13,
            "componentType" : 5126,
            "count" : 40,
            "type" : "VEC3"
        },
        {
            "bufferView" : 14,
            "componentType" : 5126,
            "count" : 40,
            "type" : "VEC2"
        },
        {
            "bufferView" : 15,
            "componentType" : 5123,
            "count" : 60,
            "type" : "SCALAR"
        },
        {
            "bufferView" : 16,
            "componentType" : 5126,
            "count" : 4,
            "max" : [
                1,
                0,
                1
            ],
            "min" : [
                -1,
                0,
                -1
            ],
            "type" : "VEC3"
        },
        {
            "bufferView" : 17,
            "componentType" : 5126,
            "count" : 4,
            "type" : "VEC3"
        },
        {
            "bufferView" : 18,
            "componentType" : 5126,
            "count" : 4,
            "type" : "VEC2"
        },
        {
            "bufferView" : 19,
            "componentType" : 5123,
            "count" : 6,
            "type" : "SCALAR"
        },
        {
            "bufferView" : 20,
            "componentType" : 5126,
            "count" : 4,
            "max" : [
                1,
                0,
                1
            ],
            "min" : [
                -1,
                0,
                -1
            ],
            "type" : "VEC3"
        },
        {
            "bufferView" : 21,
            "componentType" : 5126,
            "count" : 4,
            "type" : "VEC3"
        },
        {
            "bufferView" : 22,
            "componentType" : 5126,
            "count" : 4,
            "type" : "VEC2"
        },
        {
            "bufferView" : 23,
            "componentType" : 5126,
            "count" : 40,
            "max" : [
                1,
                0,
                1
            ],
            "min" : [
                -1,
                -0.20412784814834595,
                -1
            ],
            "type" : "VEC3"
        },
        {
            "bufferView" : 24,
            "componentType" : 5126,
            "count" : 40,
            "type" : "VEC3"
        },
        {
            "bufferView" : 25,
            "componentType" : 5126,
            "count" : 40,
            "type" : "VEC2"
        },
        {
            "bufferView" : 26,
            "componentType" : 5126,
            "count" : 40,
            "max" : [
                1,
                0,
                1
            ],
            "min" : [
                -1,
                -0.2041303664445877,
                -1
            ],
            "type" : "VEC3"
        },
        {
            "bufferView" : 27,
            "componentType" : 5126,
            "count" : 40,
            "type" : "VEC3"
        },
        {
            "bufferView" : 28,
            "componentType" : 5126,
            "count" : 40,
            "type" : "VEC2"
        },
        {
            "bufferView" : 29,
            "componentType" : 5123,
            "count" : 60,
            "type" : "SCALAR"
        },
        {
            "bufferView" : 30,
            "componentType" : 5126,
            "count" : 4,
            "max" : [
                1,
                0,
                1
            ],
            "min" : [
                -1,
                0,
                -1
            ],
            "type" : "VEC3"
        },
        {
            "bufferView" : 31,
            "componentType" : 5126,
            "count" : 4,
            "type" : "VEC3"
        },
        {
            "bufferView" : 32,
            "componentType" : 5126,
            "count" : 4,
            "type" : "VEC2"
        }
    ],
    "bufferViews" : [
        {
            "buffer" : 0,
            "byteLength" : 3456,
            "byteOffset" : 0
        },
        {
            "buffer" : 0,
            "byteLength" : 3456,
            "byteOffset" : 3456
        },
        {
            "buffer" : 0,
            "byteLength" : 2304,
            "byteOffset" : 6912
        },
        {
            "buffer" : 0,
            "byteLength" : 792,
            "byteOffset" : 9216
        },
        {
            "buffer" : 0,
            "byteLength" : 3936,
            "byteOffset" : 10008
        },
        {
            "buffer" : 0,
            "byteLength" : 3936,
            "byteOffset" : 13944
        },
        {
            "buffer" : 0,
            "byteLength" : 2624,
            "byteOffset" : 17880
        },
        {
            "buffer" : 0,
            "byteLength" : 1248,
            "byteOffset" : 20504
        },
        {
            "buffer" : 0,
            "byteLength" : 1512,
            "byteOffset" : 21752
        },
        {
            "buffer" : 0,
            "byteLength" : 1512,
            "byteOffset" : 23264
        },
        {
            "buffer" : 0,
            "byteLength" : 1008,
            "byteOffset" : 24776
        },
        {
            "buffer" : 0,
            "byteLength" : 432,
            "byteOffset" : 25784
        },
        {
            "buffer" : 0,
            "byteLength" : 480,
            "byteOffset" : 26216
        },
        {
            "buffer" : 0,
            "byteLength" : 480,
            "byteOffset" : 26696
        },
        {
            "buffer" : 0,
            "byteLength" : 320,
            "byteOffset" : 27176
        },
        {
            "buffer" : 0,
            "byteLength" : 120,
            "byteOffset" : 27496
        },
        {
            "buffer" : 0,
            "byteLength" : 48,
            "byteOffset" : 27616
        },
        {
            "buffer" : 0,
            "byteLength" : 48,
            "byteOffset" : 27664
        },
        {
            "buffer" : 0,
            "byteLength" : 32,
            "byteOffset" : 27712
        },
        {
            "buffer" : 0,
            "byteLength" : 12,
            "byteOffset" : 27744
        },
        {
            "buffer" : 0,
            "byteLength" : 48,
            "byteOffset" : 27756
        },
        {
            "buffer" : 0,
            "byteLength" : 48,
            "byteOffset" : 27804
        },
        {
            "buffer" : 0,
            "byteLength" : 32,
            "byteOffset" : 27852
        },
        {
            "buffer" : 0,
            "byteLength" : 480,
            "byteOffset" : 27884
        },
        {
            "buffer" : 0,
            "byteLength" : 480,
            "byteOffset" : 28364
        },
        {
            "buffer" : 0,
            "byteLength" : 320,
            "byteOffset" : 28844
        },
        {
            "buffer" : 0,
            "byteLength" : 480,
            "byteOffset" : 29164
        },
        {
            "buffer" : 0,
            "byteLength" : 480,
            "byteOffset" : 29644
        },
        {
            "buffer" : 0,
            "byteLength" : 320,
            "byteOffset" : 30124
        },
        {
            "buffer" : 0,
            "byteLength" : 120,
            "byteOffset" : 30444
        },
        {
            "buffer" : 0,
            "byteLength" : 48,
            "byteOffset" : 30564
        },
        {
            "buffer" : 0,
            "byteLength" : 48,
            "byteOffset" : 30612
        },
        {
            "buffer" : 0,
            "byteLength" : 32,
            "byteOffset" : 30660
        }
    ],
    "buffers" : [
        {
            "byteLength" : 30692,
            "uri" : "data:application/octet-stream;base64,"
        }
    ]
}
