{
    "asset" : {
        "generator" : "Khronos glTF Blender I/O v1.0.5",
        "version" : "2.0"
    },
    "scene" : 0,
    "scenes" : [
        {
            "name" : "Scene",
            "nodes" : [
                0,
                1,
                2,
                3,
                4,
                5,
                6,
                7,
                8
            ]
        },
        {
            "name" : "Scene.001"
        }
    ],
    "nodes" : [
        {
            "mesh" : 0,
            "name" : "dorr",
            "rotation" : [
                0,
                0.7071067690849304,
                0,
                -0.7071067690849304
            ],
            "scale" : [
                0.00794446375221014,
                -0.0427720881998539,
                0.003475676290690899
            ],
            "translation" : [
                -0.21426938474178314,
                2.07716965675354,
                -0.24896003305912018
            ]
        },
        {
            "mesh" : 1,
            "name" : "hus.017",
            "rotation" : [
                0,
                0.7071067690849304,
                0,
                -0.7071067690849304
            ],
            "scale" : [
                -0.1107005700469017,
                -0.06959087401628494,
                -0.08092203736305237
            ],
            "translation" : [
                -0.12963949143886566,
                2.107848882675171,
                -0.2653660774230957
            ]
        },
        {
            "mesh" : 2,
            "name" : "tak.017",
            "rotation" : [
                0,
                0.7071067690849304,
                0,
                -0.7071067690849304
            ],
            "scale" : [
                -0.1107005700469017,
                -0.06959087401628494,
                -0.08092203736305237
            ],
            "translation" : [
                -0.12963949143886566,
                2.107848882675171,
                -0.2653660774230957
            ]
        },
        {
            "mesh" : 3,
            "name" : "winsowram",
            "rotation" : [
                0,
                0,
                -0.7071067690849304,
                -0.7071068286895752
            ],
            "scale" : [
                0.0327853262424469,
                0.0327853262424469,
                0.06154295802116394
            ],
            "translation" : [
                -0.052786149084568024,
                2.0981409549713135,
                -0.26542726159095764
            ]
        },
        {
            "mesh" : 4,
            "name" : "windowag",
            "rotation" : [
                0,
                0,
                -0.7071067690849304,
                -0.7071068286895752
            ],
            "scale" : [
                0.0310183335095644,
                0.0310183335095644,
                0.058226048946380615
            ],
            "translation" : [
                -0.04798976331949234,
                2.098386764526367,
                -0.26276883482933044
            ]
        },
        {
            "mesh" : 5,
            "name" : "windowAg",
            "rotation" : [
                -0.5000002384185791,
                -0.5000001788139343,
                -0.4999997913837433,
                -0.4999998211860657
            ],
            "scale" : [
                0.017848005518317223,
                0.017848005518317223,
                0.03350337594747543
            ],
            "translation" : [
                -0.12998363375663757,
                2.086143970489502,
                -0.37646186351776123
            ]
        },
        {
            "mesh" : 6,
            "name" : "windowram.004",
            "rotation" : [
                -0.5000002384185791,
                -0.5000001788139343,
                -0.4999997913837433,
                -0.4999998211860657
            ],
            "scale" : [
                0.018864737823605537,
                0.018864737823605537,
                0.035411931574344635
            ],
            "translation" : [
                -0.1315132975578308,
                2.086002826690674,
                -0.3737019896507263
            ]
        },
        {
            "mesh" : 7,
            "name" : "windowram.003",
            "rotation" : [
                -0.49999961256980896,
                -0.4999995827674866,
                0.5000003576278687,
                0.5000004172325134
            ],
            "scale" : [
                0.018864737823605537,
                0.018864737823605537,
                0.035411931574344635
            ],
            "translation" : [
                -0.1297231763601303,
                2.084465265274048,
                -0.15500684082508087
            ]
        },
        {
            "mesh" : 8,
            "name" : "windowag.001",
            "rotation" : [
                -0.49999961256980896,
                -0.4999995827674866,
                0.5000003576278687,
                0.5000004172325134
            ],
            "scale" : [
                0.017848005518317223,
                0.017848005518317223,
                0.03350337594747543
            ],
            "translation" : [
                -0.13125286996364594,
                2.084606409072876,
                -0.15224690735340118
            ]
        }
    ],
    "materials" : [
        {
            "doubleSided" : true,
            "name" : "TakAgneta",
            "pbrMetallicRoughness" : {
                "baseColorFactor" : [
                    0.5039653182029724,
                    0.4198775291442871,
                    0.0285249724984169,
                    1
                ],
                "metallicFactor" : 0,
                "roughnessFactor" : 0.5
            }
        },
        {
            "doubleSided" : true,
            "name" : "hus1.019",
            "pbrMetallicRoughness" : {
                "baseColorFactor" : [
                    0.8713560104370117,
                    0.7669259905815125,
                    0.49908918142318726,
                    1
                ],
                "metallicFactor" : 0,
                "roughnessFactor" : 0.5
            }
        },
        {
            "doubleSided" : true,
            "name" : "winow.059",
            "pbrMetallicRoughness" : {
                "baseColorFactor" : [
                    0.5462386608123779,
                    0.77250075340271,
                    0.8000000715255737,
                    1
                ],
                "metallicFactor" : 0,
                "roughnessFactor" : 0.5
            }
        },
        {
            "doubleSided" : true,
            "name" : "winow.062",
            "pbrMetallicRoughness" : {
                "baseColorFactor" : [
                    0.5462386608123779,
                    0.77250075340271,
                    0.8000000715255737,
                    1
                ],
                "metallicFactor" : 0,
                "roughnessFactor" : 0.5
            }
        },
        {
            "doubleSided" : true,
            "name" : "winow.065",
            "pbrMetallicRoughness" : {
                "baseColorFactor" : [
                    0.5462386608123779,
                    0.77250075340271,
                    0.8000000715255737,
                    1
                ],
                "metallicFactor" : 0,
                "roughnessFactor" : 0.5
            }
        }
    ],
    "meshes" : [
        {
            "name" : "Cube.2330",
            "primitives" : [
                {
                    "attributes" : {
                        "POSITION" : 0,
                        "NORMAL" : 1,
                        "TEXCOORD_0" : 2
                    },
                    "indices" : 3,
                    "material" : 0
                }
            ]
        },
        {
            "name" : "Cube.2329",
            "primitives" : [
                {
                    "attributes" : {
                        "POSITION" : 4,
                        "NORMAL" : 5,
                        "TEXCOORD_0" : 6
                    },
                    "indices" : 7,
                    "material" : 1
                }
            ]
        },
        {
            "name" : "Cube.2328",
            "primitives" : [
                {
                    "attributes" : {
                        "POSITION" : 8,
                        "NORMAL" : 9,
                        "TEXCOORD_0" : 10
                    },
                    "indices" : 11,
                    "material" : 0
                }
            ]
        },
        {
            "name" : "Plane.433",
            "primitives" : [
                {
                    "attributes" : {
                        "POSITION" : 12,
                        "NORMAL" : 13,
                        "TEXCOORD_0" : 14
                    },
                    "indices" : 15,
                    "material" : 0
                },
                {
                    "attributes" : {
                        "POSITION" : 16,
                        "NORMAL" : 17,
                        "TEXCOORD_0" : 18
                    },
                    "indices" : 19,
                    "material" : 0
                }
            ]
        },
        {
            "name" : "Plane.434",
            "primitives" : [
                {
                    "attributes" : {
                        "POSITION" : 20,
                        "NORMAL" : 21,
                        "TEXCOORD_0" : 22
                    },
                    "indices" : 23,
                    "material" : 2
                }
            ]
        },
        {
            "name" : "Plane.455",
            "primitives" : [
                {
                    "attributes" : {
                        "POSITION" : 24,
                        "NORMAL" : 25,
                        "TEXCOORD_0" : 26
                    },
                    "indices" : 23,
                    "material" : 3
                }
            ]
        },
        {
            "name" : "Plane.454",
            "primitives" : [
                {
                    "attributes" : {
                        "POSITION" : 27,
                        "NORMAL" : 28,
                        "TEXCOORD_0" : 29
                    },
                    "indices" : 30,
                    "material" : 0
                }
            ]
        },
        {
            "name" : "Plane.471",
            "primitives" : [
                {
                    "attributes" : {
                        "POSITION" : 31,
                        "NORMAL" : 32,
                        "TEXCOORD_0" : 33
                    },
                    "indices" : 34,
                    "material" : 0
                }
            ]
        },
        {
            "name" : "Plane.470",
            "primitives" : [
                {
                    "attributes" : {
                        "POSITION" : 35,
                        "NORMAL" : 36,
                        "TEXCOORD_0" : 37
                    },
                    "indices" : 23,
                    "material" : 4
                }
            ]
        }
    ],
    "accessors" : [
        {
            "bufferView" : 0,
            "componentType" : 5126,
            "count" : 288,
            "max" : [
                1.3690929412841797,
                1,
                1.2430024147033691
            ],
            "min" : [
                -7.518033981323242,
                -1.2523632049560547,
                -1.1098594665527344
            ],
            "type" : "VEC3"
        },
        {
            "bufferView" : 1,
            "componentType" : 5126,
            "count" : 288,
            "type" : "VEC3"
        },
        {
            "bufferView" : 2,
            "componentType" : 5126,
            "count" : 288,
            "type" : "VEC2"
        },
        {
            "bufferView" : 3,
            "componentType" : 5123,
            "count" : 396,
            "type" : "SCALAR"
        },
        {
            "bufferView" : 4,
            "componentType" : 5126,
            "count" : 328,
            "max" : [
                1.0926798582077026,
                1.0124179124832153,
                1.1082288026809692
            ],
            "min" : [
                -1.0945868492126465,
                -1,
                -1.1350611448287964
            ],
            "type" : "VEC3"
        },
        {
            "bufferView" : 5,
            "componentType" : 5126,
            "count" : 328,
            "type" : "VEC3"
        },
        {
            "bufferView" : 6,
            "componentType" : 5126,
            "count" : 328,
            "type" : "VEC2"
        },
        {
            "bufferView" : 7,
            "componentType" : 5123,
            "count" : 624,
            "type" : "SCALAR"
        },
        {
            "bufferView" : 8,
            "componentType" : 5126,
            "count" : 126,
            "max" : [
                1.1577215194702148,
                -0.07981813699007034,
                1.139615774154663
            ],
            "min" : [
                -1.149268388748169,
                -1.146582841873169,
                -1.152886152267456
            ],
            "type" : "VEC3"
        },
        {
            "bufferView" : 9,
            "componentType" : 5126,
            "count" : 126,
            "type" : "VEC3"
        },
        {
            "bufferView" : 10,
            "componentType" : 5126,
            "count" : 126,
            "type" : "VEC2"
        },
        {
            "bufferView" : 11,
            "componentType" : 5123,
            "count" : 216,
            "type" : "SCALAR"
        },
        {
            "bufferView" : 12,
            "componentType" : 5126,
            "count" : 28,
            "max" : [
                1,
                0,
                1
            ],
            "min" : [
                -1,
                -0.20412616431713104,
                -1
            ],
            "type" : "VEC3"
        },
        {
            "bufferView" : 13,
            "componentType" : 5126,
            "count" : 28,
            "type" : "VEC3"
        },
        {
            "bufferView" : 14,
            "componentType" : 5126,
            "count" : 28,
            "type" : "VEC2"
        },
        {
            "bufferView" : 15,
            "componentType" : 5123,
            "count" : 42,
            "type" : "SCALAR"
        },
        {
            "bufferView" : 16,
            "componentType" : 5126,
            "count" : 12,
            "max" : [
                0.907531201839447,
                -0.16801483929157257,
                0.9229241013526917
            ],
            "min" : [
                -0.9183537364006042,
                -0.1895992010831833,
                -0.9028111100196838
            ],
            "type" : "VEC3"
        },
        {
            "bufferView" : 17,
            "componentType" : 5126,
            "count" : 12,
            "type" : "VEC3"
        },
        {
            "bufferView" : 18,
            "componentType" : 5126,
            "count" : 12,
            "type" : "VEC2"
        },
        {
            "bufferView" : 19,
            "componentType" : 5123,
            "count" : 18,
            "type" : "SCALAR"
        },
        {
            "bufferView" : 20,
            "componentType" : 5126,
            "count" : 4,
            "max" : [
                1,
                0,
                1
            ],
            "min" : [
                -1,
                0,
                -1
            ],
            "type" : "VEC3"
        },
        {
            "bufferView" : 21,
            "componentType" : 5126,
            "count" : 4,
            "type" : "VEC3"
        },
        {
            "bufferView" : 22,
            "componentType" : 5126,
            "count" : 4,
            "type" : "VEC2"
        },
        {
            "bufferView" : 23,
            "componentType" : 5123,
            "count" : 6,
            "type" : "SCALAR"
        },
        {
            "bufferView" : 24,
            "componentType" : 5126,
            "count" : 4,
            "max" : [
                1,
                0,
                1
            ],
            "min" : [
                -1,
                0,
                -1
            ],
            "type" : "VEC3"
        },
        {
            "bufferView" : 25,
            "componentType" : 5126,
            "count" : 4,
            "type" : "VEC3"
        },
        {
            "bufferView" : 26,
            "componentType" : 5126,
            "count" : 4,
            "type" : "VEC2"
        },
        {
            "bufferView" : 27,
            "componentType" : 5126,
            "count" : 40,
            "max" : [
                1,
                0,
                1
            ],
            "min" : [
                -1,
                -0.20412832498550415,
                -1
            ],
            "type" : "VEC3"
        },
        {
            "bufferView" : 28,
            "componentType" : 5126,
            "count" : 40,
            "type" : "VEC3"
        },
        {
            "bufferView" : 29,
            "componentType" : 5126,
            "count" : 40,
            "type" : "VEC2"
        },
        {
            "bufferView" : 30,
            "componentType" : 5123,
            "count" : 60,
            "type" : "SCALAR"
        },
        {
            "bufferView" : 31,
            "componentType" : 5126,
            "count" : 40,
            "max" : [
                1,
                0,
                1
            ],
            "min" : [
                -1,
                -0.2041303664445877,
                -1
            ],
            "type" : "VEC3"
        },
        {
            "bufferView" : 32,
            "componentType" : 5126,
            "count" : 40,
            "type" : "VEC3"
        },
        {
            "bufferView" : 33,
            "componentType" : 5126,
            "count" : 40,
            "type" : "VEC2"
        },
        {
            "bufferView" : 34,
            "componentType" : 5123,
            "count" : 60,
            "type" : "SCALAR"
        },
        {
            "bufferView" : 35,
            "componentType" : 5126,
            "count" : 4,
            "max" : [
                1,
                0,
                1
            ],
            "min" : [
                -1,
                0,
                -1
            ],
            "type" : "VEC3"
        },
        {
            "bufferView" : 36,
            "componentType" : 5126,
            "count" : 4,
            "type" : "VEC3"
        },
        {
            "bufferView" : 37,
            "componentType" : 5126,
            "count" : 4,
            "type" : "VEC2"
        }
    ],
    "bufferViews" : [
        {
            "buffer" : 0,
            "byteLength" : 3456,
            "byteOffset" : 0
        },
        {
            "buffer" : 0,
            "byteLength" : 3456,
            "byteOffset" : 3456
        },
        {
            "buffer" : 0,
            "byteLength" : 2304,
            "byteOffset" : 6912
        },
        {
            "buffer" : 0,
            "byteLength" : 792,
            "byteOffset" : 9216
        },
        {
            "buffer" : 0,
            "byteLength" : 3936,
            "byteOffset" : 10008
        },
        {
            "buffer" : 0,
            "byteLength" : 3936,
            "byteOffset" : 13944
        },
        {
            "buffer" : 0,
            "byteLength" : 2624,
            "byteOffset" : 17880
        },
        {
            "buffer" : 0,
            "byteLength" : 1248,
            "byteOffset" : 20504
        },
        {
            "buffer" : 0,
            "byteLength" : 1512,
            "byteOffset" : 21752
        },
        {
            "buffer" : 0,
            "byteLength" : 1512,
            "byteOffset" : 23264
        },
        {
            "buffer" : 0,
            "byteLength" : 1008,
            "byteOffset" : 24776
        },
        {
            "buffer" : 0,
            "byteLength" : 432,
            "byteOffset" : 25784
        },
        {
            "buffer" : 0,
            "byteLength" : 336,
            "byteOffset" : 26216
        },
        {
            "buffer" : 0,
            "byteLength" : 336,
            "byteOffset" : 26552
        },
        {
            "buffer" : 0,
            "byteLength" : 224,
            "byteOffset" : 26888
        },
        {
            "buffer" : 0,
            "byteLength" : 84,
            "byteOffset" : 27112
        },
        {
            "buffer" : 0,
            "byteLength" : 144,
            "byteOffset" : 27196
        },
        {
            "buffer" : 0,
            "byteLength" : 144,
            "byteOffset" : 27340
        },
        {
            "buffer" : 0,
            "byteLength" : 96,
            "byteOffset" : 27484
        },
        {
            "buffer" : 0,
            "byteLength" : 36,
            "byteOffset" : 27580
        },
        {
            "buffer" : 0,
            "byteLength" : 48,
            "byteOffset" : 27616
        },
        {
            "buffer" : 0,
            "byteLength" : 48,
            "byteOffset" : 27664
        },
        {
            "buffer" : 0,
            "byteLength" : 32,
            "byteOffset" : 27712
        },
        {
            "buffer" : 0,
            "byteLength" : 12,
            "byteOffset" : 27744
        },
        {
            "buffer" : 0,
            "byteLength" : 48,
            "byteOffset" : 27756
        },
        {
            "buffer" : 0,
            "byteLength" : 48,
            "byteOffset" : 27804
        },
        {
            "buffer" : 0,
            "byteLength" : 32,
            "byteOffset" : 27852
        },
        {
            "buffer" : 0,
            "byteLength" : 480,
            "byteOffset" : 27884
        },
        {
            "buffer" : 0,
            "byteLength" : 480,
            "byteOffset" : 28364
        },
        {
            "buffer" : 0,
            "byteLength" : 320,
            "byteOffset" : 28844
        },
        {
            "buffer" : 0,
            "byteLength" : 120,
            "byteOffset" : 29164
        },
        {
            "buffer" : 0,
            "byteLength" : 480,
            "byteOffset" : 29284
        },
        {
            "buffer" : 0,
            "byteLength" : 480,
            "byteOffset" : 29764
        },
        {
            "buffer" : 0,
            "byteLength" : 320,
            "byteOffset" : 30244
        },
        {
            "buffer" : 0,
            "byteLength" : 120,
            "byteOffset" : 30564
        },
        {
            "buffer" : 0,
            "byteLength" : 48,
            "byteOffset" : 30684
        },
        {
            "buffer" : 0,
            "byteLength" : 48,
            "byteOffset" : 30732
        },
        {
            "buffer" : 0,
            "byteLength" : 32,
            "byteOffset" : 30780
        }
    ],
    "buffers" : [
        {
            "byteLength" : 30812,
            "uri" : "data:application/octet-stream;base64,"
        }
    ]
}
