{
    "asset" : {
        "generator" : "Khronos glTF Blender I/O v1.0.5",
        "version" : "2.0"
    },
    "scene" : 0,
    "scenes" : [
        {
            "name" : "Scene",
            "nodes" : [
                0,
                1,
                2,
                3,
                4,
                5,
                6,
                7,
                8
            ]
        },
        {
            "name" : "Scene.001"
        }
    ],
    "nodes" : [
        {
            "mesh" : 0,
            "name" : "dorr.002",
            "rotation" : [
                0,
                -1,
                0,
                1.1924880638503055e-08
            ],
            "scale" : [
                0.00794446375221014,
                -0.0427720881998539,
                0.003475676290690899
            ],
            "translation" : [
                0.6421276330947876,
                2.078707218170166,
                0.0765901505947113
            ]
        },
        {
            "mesh" : 1,
            "name" : "hus.019",
            "rotation" : [
                0,
                -1,
                0,
                1.1924880638503055e-08
            ],
            "scale" : [
                -0.1107005700469017,
                -0.06959087401628494,
                -0.08092203736305237
            ],
            "translation" : [
                0.6585336923599243,
                2.109386444091797,
                0.16122007369995117
            ]
        },
        {
            "mesh" : 2,
            "name" : "tak.019",
            "rotation" : [
                0,
                -1,
                0,
                1.1924880638503055e-08
            ],
            "scale" : [
                -0.1107005700469017,
                -0.06959087401628494,
                -0.08092203736305237
            ],
            "translation" : [
                0.6585336923599243,
                2.109386444091797,
                0.16122007369995117
            ]
        },
        {
            "mesh" : 3,
            "name" : "windowram.008",
            "rotation" : [
                -0.49999985098838806,
                -0.4999998211860657,
                0.5000001192092896,
                0.5000001788139343
            ],
            "scale" : [
                0.0327853262424469,
                0.0327853262424469,
                0.06154295802116394
            ],
            "translation" : [
                0.657798707485199,
                2.0981409549713135,
                0.24726083874702454
            ]
        },
        {
            "mesh" : 4,
            "name" : "windowswe",
            "rotation" : [
                -0.49999985098838806,
                -0.4999998211860657,
                0.5000001192092896,
                0.5000001788139343
            ],
            "scale" : [
                0.0310183335095644,
                0.0310183335095644,
                0.058226048946380615
            ],
            "translation" : [
                0.6615004539489746,
                2.098386764526367,
                0.2520572245121002
            ]
        },
        {
            "mesh" : 5,
            "name" : "windowswe.001",
            "rotation" : [
                0,
                0,
                0.7071067690849304,
                0.7071068286895752
            ],
            "scale" : [
                0.017848005518317223,
                0.017848005518317223,
                0.03350337594747543
            ],
            "translation" : [
                0.7708330154418945,
                2.086143970489502,
                0.16137631237506866
            ]
        },
        {
            "mesh" : 6,
            "name" : "windowram.009",
            "rotation" : [
                0,
                0,
                0.7071067690849304,
                0.7071068286895752
            ],
            "scale" : [
                0.018864737823605537,
                0.018864737823605537,
                0.035411931574344635
            ],
            "translation" : [
                0.7680730819702148,
                2.086002826690674,
                0.15984664857387543
            ]
        },
        {
            "mesh" : 7,
            "name" : "windowram.010",
            "rotation" : [
                0.7071068286895752,
                0.7071067690849304,
                0,
                -9.131863976108434e-07
            ],
            "scale" : [
                0.018864737823605537,
                0.018864737823605537,
                0.035411931574344635
            ],
            "translation" : [
                0.5481745004653931,
                2.086002826690674,
                0.16113637387752533
            ]
        },
        {
            "mesh" : 8,
            "name" : "windowswe.002",
            "rotation" : [
                0.7071068286895752,
                0.7071067690849304,
                0,
                -9.131863976108434e-07
            ],
            "scale" : [
                0.017848005518317223,
                0.017848005518317223,
                0.03350337594747543
            ],
            "translation" : [
                0.5454145669937134,
                2.086143970489502,
                0.1596067100763321
            ]
        }
    ],
    "materials" : [
        {
            "doubleSided" : true,
            "name" : "TakSve",
            "pbrMetallicRoughness" : {
                "baseColorFactor" : [
                    0.8000000715255737,
                    0.030629687011241913,
                    0.04805427044630051,
                    1
                ],
                "metallicFactor" : 0,
                "roughnessFactor" : 0.5
            }
        },
        {
            "doubleSided" : true,
            "name" : "hus1.021",
            "pbrMetallicRoughness" : {
                "baseColorFactor" : [
                    0.8713560104370117,
                    0.7669259905815125,
                    0.49908918142318726,
                    1
                ],
                "metallicFactor" : 0,
                "roughnessFactor" : 0.5
            }
        },
        {
            "doubleSided" : true,
            "name" : "winow.061",
            "pbrMetallicRoughness" : {
                "baseColorFactor" : [
                    0.5462386608123779,
                    0.77250075340271,
                    0.8000000715255737,
                    1
                ],
                "metallicFactor" : 0,
                "roughnessFactor" : 0.5
            }
        },
        {
            "doubleSided" : true,
            "name" : "winow.064",
            "pbrMetallicRoughness" : {
                "baseColorFactor" : [
                    0.5462386608123779,
                    0.77250075340271,
                    0.8000000715255737,
                    1
                ],
                "metallicFactor" : 0,
                "roughnessFactor" : 0.5
            }
        },
        {
            "doubleSided" : true,
            "name" : "winow.067",
            "pbrMetallicRoughness" : {
                "baseColorFactor" : [
                    0.5462386608123779,
                    0.77250075340271,
                    0.8000000715255737,
                    1
                ],
                "metallicFactor" : 0,
                "roughnessFactor" : 0.5
            }
        }
    ],
    "meshes" : [
        {
            "name" : "Cube.2340",
            "primitives" : [
                {
                    "attributes" : {
                        "POSITION" : 0,
                        "NORMAL" : 1,
                        "TEXCOORD_0" : 2
                    },
                    "indices" : 3,
                    "material" : 0
                }
            ]
        },
        {
            "name" : "Cube.2339",
            "primitives" : [
                {
                    "attributes" : {
                        "POSITION" : 4,
                        "NORMAL" : 5,
                        "TEXCOORD_0" : 6
                    },
                    "indices" : 7,
                    "material" : 1
                }
            ]
        },
        {
            "name" : "Cube.2338",
            "primitives" : [
                {
                    "attributes" : {
                        "POSITION" : 8,
                        "NORMAL" : 9,
                        "TEXCOORD_0" : 10
                    },
                    "indices" : 11,
                    "material" : 0
                }
            ]
        },
        {
            "name" : "Plane.447",
            "primitives" : [
                {
                    "attributes" : {
                        "POSITION" : 12,
                        "NORMAL" : 13,
                        "TEXCOORD_0" : 14
                    },
                    "indices" : 15,
                    "material" : 0
                }
            ]
        },
        {
            "name" : "Plane.448",
            "primitives" : [
                {
                    "attributes" : {
                        "POSITION" : 16,
                        "NORMAL" : 17,
                        "TEXCOORD_0" : 18
                    },
                    "indices" : 19,
                    "material" : 2
                }
            ]
        },
        {
            "name" : "Plane.469",
            "primitives" : [
                {
                    "attributes" : {
                        "POSITION" : 20,
                        "NORMAL" : 21,
                        "TEXCOORD_0" : 22
                    },
                    "indices" : 19,
                    "material" : 3
                }
            ]
        },
        {
            "name" : "Plane.468",
            "primitives" : [
                {
                    "attributes" : {
                        "POSITION" : 23,
                        "NORMAL" : 24,
                        "TEXCOORD_0" : 25
                    },
                    "indices" : 26,
                    "material" : 0
                }
            ]
        },
        {
            "name" : "Plane.485",
            "primitives" : [
                {
                    "attributes" : {
                        "POSITION" : 27,
                        "NORMAL" : 28,
                        "TEXCOORD_0" : 29
                    },
                    "indices" : 26,
                    "material" : 0
                }
            ]
        },
        {
            "name" : "Plane.484",
            "primitives" : [
                {
                    "attributes" : {
                        "POSITION" : 30,
                        "NORMAL" : 31,
                        "TEXCOORD_0" : 32
                    },
                    "indices" : 19,
                    "material" : 4
                }
            ]
        }
    ],
    "accessors" : [
        {
            "bufferView" : 0,
            "componentType" : 5126,
            "count" : 288,
            "max" : [
                1.3690910339355469,
                1,
                1.24300217628479
            ],
            "min" : [
                -7.518035888671875,
                -1.252359390258789,
                -1.1098594665527344
            ],
            "type" : "VEC3"
        },
        {
            "bufferView" : 1,
            "componentType" : 5126,
            "count" : 288,
            "type" : "VEC3"
        },
        {
            "bufferView" : 2,
            "componentType" : 5126,
            "count" : 288,
            "type" : "VEC2"
        },
        {
            "bufferView" : 3,
            "componentType" : 5123,
            "count" : 396,
            "type" : "SCALAR"
        },
        {
            "bufferView" : 4,
            "componentType" : 5126,
            "count" : 328,
            "max" : [
                1.0926798582077026,
                1.0124179124832153,
                1.1082288026809692
            ],
            "min" : [
                -1.0945868492126465,
                -1,
                -1.1350611448287964
            ],
            "type" : "VEC3"
        },
        {
            "bufferView" : 5,
            "componentType" : 5126,
            "count" : 328,
            "type" : "VEC3"
        },
        {
            "bufferView" : 6,
            "componentType" : 5126,
            "count" : 328,
            "type" : "VEC2"
        },
        {
            "bufferView" : 7,
            "componentType" : 5123,
            "count" : 624,
            "type" : "SCALAR"
        },
        {
            "bufferView" : 8,
            "componentType" : 5126,
            "count" : 126,
            "max" : [
                1.1577215194702148,
                -0.07981813699007034,
                1.139615774154663
            ],
            "min" : [
                -1.149268388748169,
                -1.146582841873169,
                -1.152886152267456
            ],
            "type" : "VEC3"
        },
        {
            "bufferView" : 9,
            "componentType" : 5126,
            "count" : 126,
            "type" : "VEC3"
        },
        {
            "bufferView" : 10,
            "componentType" : 5126,
            "count" : 126,
            "type" : "VEC2"
        },
        {
            "bufferView" : 11,
            "componentType" : 5123,
            "count" : 216,
            "type" : "SCALAR"
        },
        {
            "bufferView" : 12,
            "componentType" : 5126,
            "count" : 40,
            "max" : [
                1,
                0,
                1
            ],
            "min" : [
                -1,
                -0.20412598550319672,
                -1
            ],
            "type" : "VEC3"
        },
        {
            "bufferView" : 13,
            "componentType" : 5126,
            "count" : 40,
            "type" : "VEC3"
        },
        {
            "bufferView" : 14,
            "componentType" : 5126,
            "count" : 40,
            "type" : "VEC2"
        },
        {
            "bufferView" : 15,
            "componentType" : 5123,
            "count" : 60,
            "type" : "SCALAR"
        },
        {
            "bufferView" : 16,
            "componentType" : 5126,
            "count" : 4,
            "max" : [
                1,
                0,
                1
            ],
            "min" : [
                -1,
                0,
                -1
            ],
            "type" : "VEC3"
        },
        {
            "bufferView" : 17,
            "componentType" : 5126,
            "count" : 4,
            "type" : "VEC3"
        },
        {
            "bufferView" : 18,
            "componentType" : 5126,
            "count" : 4,
            "type" : "VEC2"
        },
        {
            "bufferView" : 19,
            "componentType" : 5123,
            "count" : 6,
            "type" : "SCALAR"
        },
        {
            "bufferView" : 20,
            "componentType" : 5126,
            "count" : 4,
            "max" : [
                1,
                0,
                1
            ],
            "min" : [
                -1,
                0,
                -1
            ],
            "type" : "VEC3"
        },
        {
            "bufferView" : 21,
            "componentType" : 5126,
            "count" : 4,
            "type" : "VEC3"
        },
        {
            "bufferView" : 22,
            "componentType" : 5126,
            "count" : 4,
            "type" : "VEC2"
        },
        {
            "bufferView" : 23,
            "componentType" : 5126,
            "count" : 40,
            "max" : [
                1,
                0,
                1
            ],
            "min" : [
                -1,
                -0.20412839949131012,
                -1
            ],
            "type" : "VEC3"
        },
        {
            "bufferView" : 24,
            "componentType" : 5126,
            "count" : 40,
            "type" : "VEC3"
        },
        {
            "bufferView" : 25,
            "componentType" : 5126,
            "count" : 40,
            "type" : "VEC2"
        },
        {
            "bufferView" : 26,
            "componentType" : 5123,
            "count" : 60,
            "type" : "SCALAR"
        },
        {
            "bufferView" : 27,
            "componentType" : 5126,
            "count" : 40,
            "max" : [
                1,
                0,
                1
            ],
            "min" : [
                -1,
                -0.2041284441947937,
                -1
            ],
            "type" : "VEC3"
        },
        {
            "bufferView" : 28,
            "componentType" : 5126,
            "count" : 40,
            "type" : "VEC3"
        },
        {
            "bufferView" : 29,
            "componentType" : 5126,
            "count" : 40,
            "type" : "VEC2"
        },
        {
            "bufferView" : 30,
            "componentType" : 5126,
            "count" : 4,
            "max" : [
                1,
                0,
                1
            ],
            "min" : [
                -1,
                0,
                -1
            ],
            "type" : "VEC3"
        },
        {
            "bufferView" : 31,
            "componentType" : 5126,
            "count" : 4,
            "type" : "VEC3"
        },
        {
            "bufferView" : 32,
            "componentType" : 5126,
            "count" : 4,
            "type" : "VEC2"
        }
    ],
    "bufferViews" : [
        {
            "buffer" : 0,
            "byteLength" : 3456,
            "byteOffset" : 0
        },
        {
            "buffer" : 0,
            "byteLength" : 3456,
            "byteOffset" : 3456
        },
        {
            "buffer" : 0,
            "byteLength" : 2304,
            "byteOffset" : 6912
        },
        {
            "buffer" : 0,
            "byteLength" : 792,
            "byteOffset" : 9216
        },
        {
            "buffer" : 0,
            "byteLength" : 3936,
            "byteOffset" : 10008
        },
        {
            "buffer" : 0,
            "byteLength" : 3936,
            "byteOffset" : 13944
        },
        {
            "buffer" : 0,
            "byteLength" : 2624,
            "byteOffset" : 17880
        },
        {
            "buffer" : 0,
            "byteLength" : 1248,
            "byteOffset" : 20504
        },
        {
            "buffer" : 0,
            "byteLength" : 1512,
            "byteOffset" : 21752
        },
        {
            "buffer" : 0,
            "byteLength" : 1512,
            "byteOffset" : 23264
        },
        {
            "buffer" : 0,
            "byteLength" : 1008,
            "byteOffset" : 24776
        },
        {
            "buffer" : 0,
            "byteLength" : 432,
            "byteOffset" : 25784
        },
        {
            "buffer" : 0,
            "byteLength" : 480,
            "byteOffset" : 26216
        },
        {
            "buffer" : 0,
            "byteLength" : 480,
            "byteOffset" : 26696
        },
        {
            "buffer" : 0,
            "byteLength" : 320,
            "byteOffset" : 27176
        },
        {
            "buffer" : 0,
            "byteLength" : 120,
            "byteOffset" : 27496
        },
        {
            "buffer" : 0,
            "byteLength" : 48,
            "byteOffset" : 27616
        },
        {
            "buffer" : 0,
            "byteLength" : 48,
            "byteOffset" : 27664
        },
        {
            "buffer" : 0,
            "byteLength" : 32,
            "byteOffset" : 27712
        },
        {
            "buffer" : 0,
            "byteLength" : 12,
            "byteOffset" : 27744
        },
        {
            "buffer" : 0,
            "byteLength" : 48,
            "byteOffset" : 27756
        },
        {
            "buffer" : 0,
            "byteLength" : 48,
            "byteOffset" : 27804
        },
        {
            "buffer" : 0,
            "byteLength" : 32,
            "byteOffset" : 27852
        },
        {
            "buffer" : 0,
            "byteLength" : 480,
            "byteOffset" : 27884
        },
        {
            "buffer" : 0,
            "byteLength" : 480,
            "byteOffset" : 28364
        },
        {
            "buffer" : 0,
            "byteLength" : 320,
            "byteOffset" : 28844
        },
        {
            "buffer" : 0,
            "byteLength" : 120,
            "byteOffset" : 29164
        },
        {
            "buffer" : 0,
            "byteLength" : 480,
            "byteOffset" : 29284
        },
        {
            "buffer" : 0,
            "byteLength" : 480,
            "byteOffset" : 29764
        },
        {
            "buffer" : 0,
            "byteLength" : 320,
            "byteOffset" : 30244
        },
        {
            "buffer" : 0,
            "byteLength" : 48,
            "byteOffset" : 30564
        },
        {
            "buffer" : 0,
            "byteLength" : 48,
            "byteOffset" : 30612
        },
        {
            "buffer" : 0,
            "byteLength" : 32,
            "byteOffset" : 30660
        }
    ],
    "buffers" : [
        {
            "byteLength" : 30692,
            "uri" : "data:application/octet-stream;base64,"
        }
    ]
}
