{
    "asset" : {
        "generator" : "Khronos glTF Blender I/O v1.0.5",
        "version" : "2.0"
    },
    "scene" : 0,
    "scenes" : [
        {
            "name" : "Scene",
            "nodes" : [
                0,
                1,
                2,
                3,
                4
            ]
        },
        {
            "name" : "Scene.001"
        }
    ],
    "nodes" : [
        {
            "mesh" : 0,
            "name" : "Cube.039",
            "rotation" : [
                0,
                0.7071067690849304,
                0,
                -0.7071067690849304
            ],
            "scale" : [
                0.09395764768123627,
                0.0018791529582813382,
                0.06577035039663315
            ],
            "translation" : [
                0.6546868085861206,
                2.033891201019287,
                -0.3563251495361328
            ]
        },
        {
            "mesh" : 1,
            "name" : "Cylinder.008",
            "rotation" : [
                0,
                0.7071067690849304,
                0,
                -0.7071067690849304
            ],
            "scale" : [
                9.384639739990234,
                37.58306121826172,
                9.39576530456543
            ],
            "translation" : [
                0.5967367887496948,
                2.0526814460754395,
                -0.3564147353172302
            ]
        },
        {
            "mesh" : 2,
            "name" : "Cylinder.007",
            "rotation" : [
                0,
                0.7071067690849304,
                0,
                -0.7071067690849304
            ],
            "scale" : [
                9.384639739990234,
                71.12593841552734,
                9.39576530456543
            ],
            "translation" : [
                0.6546868085861206,
                2.033891201019287,
                -0.3563251495361328
            ]
        },
        {
            "mesh" : 3,
            "name" : "Cylinder.006",
            "rotation" : [
                0,
                0.7071067690849304,
                0,
                -0.7071067690849304
            ],
            "scale" : [
                9.384639739990234,
                70.75010681152344,
                9.39576530456543
            ],
            "translation" : [
                0.6548343896865845,
                2.033891201019287,
                -0.240398108959198
            ]
        },
        {
            "mesh" : 4,
            "name" : "Cylinder.005",
            "rotation" : [
                0,
                0.7071067690849304,
                0,
                -0.7071067690849304
            ],
            "scale" : [
                9.384639739990234,
                37.58306121826172,
                9.39576530456543
            ],
            "translation" : [
                0.5967367887496948,
                2.0526814460754395,
                -0.2383231818675995
            ]
        }
    ],
    "materials" : [
        {
            "doubleSided" : true,
            "name" : "Material.028",
            "pbrMetallicRoughness" : {}
        }
    ],
    "meshes" : [
        {
            "name" : "Cube.061",
            "primitives" : [
                {
                    "attributes" : {
                        "POSITION" : 0,
                        "NORMAL" : 1,
                        "TEXCOORD_0" : 2
                    },
                    "indices" : 3,
                    "material" : 0
                }
            ]
        },
        {
            "name" : "Cylinder.026",
            "primitives" : [
                {
                    "attributes" : {
                        "POSITION" : 4,
                        "NORMAL" : 5,
                        "TEXCOORD_0" : 6
                    },
                    "indices" : 7
                }
            ]
        },
        {
            "name" : "Cylinder.027",
            "primitives" : [
                {
                    "attributes" : {
                        "POSITION" : 8,
                        "NORMAL" : 9,
                        "TEXCOORD_0" : 10
                    },
                    "indices" : 7
                }
            ]
        },
        {
            "name" : "Cylinder.028",
            "primitives" : [
                {
                    "attributes" : {
                        "POSITION" : 11,
                        "NORMAL" : 12,
                        "TEXCOORD_0" : 13
                    },
                    "indices" : 7
                }
            ]
        },
        {
            "name" : "Cylinder.025",
            "primitives" : [
                {
                    "attributes" : {
                        "POSITION" : 14,
                        "NORMAL" : 15,
                        "TEXCOORD_0" : 16
                    },
                    "indices" : 7
                }
            ]
        }
    ],
    "accessors" : [
        {
            "bufferView" : 0,
            "componentType" : 5126,
            "count" : 24,
            "max" : [
                1.6236084699630737,
                46.51068115234375,
                1.3286550045013428
            ],
            "min" : [
                -0.37639153003692627,
                11.4285888671875,
                -0.4573880732059479
            ],
            "type" : "VEC3"
        },
        {
            "bufferView" : 1,
            "componentType" : 5126,
            "count" : 24,
            "type" : "VEC3"
        },
        {
            "bufferView" : 2,
            "componentType" : 5126,
            "count" : 24,
            "type" : "VEC2"
        },
        {
            "bufferView" : 3,
            "componentType" : 5123,
            "count" : 36,
            "type" : "SCALAR"
        },
        {
            "bufferView" : 4,
            "componentType" : 5126,
            "count" : 36,
            "max" : [
                0.00015588458336424083,
                0.0005000000237487257,
                0.00017999998817685992
            ],
            "min" : [
                -0.00015588458336424083,
                -0.0005000000237487257,
                -0.00017999998817685992
            ],
            "type" : "VEC3"
        },
        {
            "bufferView" : 5,
            "componentType" : 5126,
            "count" : 36,
            "type" : "VEC3"
        },
        {
            "bufferView" : 6,
            "componentType" : 5126,
            "count" : 36,
            "type" : "VEC2"
        },
        {
            "bufferView" : 7,
            "componentType" : 5123,
            "count" : 60,
            "type" : "SCALAR"
        },
        {
            "bufferView" : 8,
            "componentType" : 5126,
            "count" : 36,
            "max" : [
                0.00014638694119639695,
                0.0009999999310821295,
                0.00017295866564381868
            ],
            "min" : [
                -0.00016538219642825425,
                5.820766091346741e-11,
                -0.00018704129615798593
            ],
            "type" : "VEC3"
        },
        {
            "bufferView" : 9,
            "componentType" : 5126,
            "count" : 36,
            "type" : "VEC3"
        },
        {
            "bufferView" : 10,
            "componentType" : 5126,
            "count" : 36,
            "type" : "VEC2"
        },
        {
            "bufferView" : 11,
            "componentType" : 5126,
            "count" : 36,
            "max" : [
                0.00018026241741608828,
                0.000999999581836164,
                0.00018868522602133453
            ],
            "min" : [
                -0.00013150674931239337,
                -4.656612873077393e-10,
                -0.0001713147503323853
            ],
            "type" : "VEC3"
        },
        {
            "bufferView" : 12,
            "componentType" : 5126,
            "count" : 36,
            "type" : "VEC3"
        },
        {
            "bufferView" : 13,
            "componentType" : 5126,
            "count" : 36,
            "type" : "VEC2"
        },
        {
            "bufferView" : 14,
            "componentType" : 5126,
            "count" : 36,
            "max" : [
                0.00015588384121656418,
                0.0005000000237487257,
                0.00017999998817685992
            ],
            "min" : [
                -0.00015588532551191747,
                -0.0005000000237487257,
                -0.00017999998817685992
            ],
            "type" : "VEC3"
        },
        {
            "bufferView" : 15,
            "componentType" : 5126,
            "count" : 36,
            "type" : "VEC3"
        },
        {
            "bufferView" : 16,
            "componentType" : 5126,
            "count" : 36,
            "type" : "VEC2"
        }
    ],
    "bufferViews" : [
        {
            "buffer" : 0,
            "byteLength" : 288,
            "byteOffset" : 0
        },
        {
            "buffer" : 0,
            "byteLength" : 288,
            "byteOffset" : 288
        },
        {
            "buffer" : 0,
            "byteLength" : 192,
            "byteOffset" : 576
        },
        {
            "buffer" : 0,
            "byteLength" : 72,
            "byteOffset" : 768
        },
        {
            "buffer" : 0,
            "byteLength" : 432,
            "byteOffset" : 840
        },
        {
            "buffer" : 0,
            "byteLength" : 432,
            "byteOffset" : 1272
        },
        {
            "buffer" : 0,
            "byteLength" : 288,
            "byteOffset" : 1704
        },
        {
            "buffer" : 0,
            "byteLength" : 120,
            "byteOffset" : 1992
        },
        {
            "buffer" : 0,
            "byteLength" : 432,
            "byteOffset" : 2112
        },
        {
            "buffer" : 0,
            "byteLength" : 432,
            "byteOffset" : 2544
        },
        {
            "buffer" : 0,
            "byteLength" : 288,
            "byteOffset" : 2976
        },
        {
            "buffer" : 0,
            "byteLength" : 432,
            "byteOffset" : 3264
        },
        {
            "buffer" : 0,
            "byteLength" : 432,
            "byteOffset" : 3696
        },
        {
            "buffer" : 0,
            "byteLength" : 288,
            "byteOffset" : 4128
        },
        {
            "buffer" : 0,
            "byteLength" : 432,
            "byteOffset" : 4416
        },
        {
            "buffer" : 0,
            "byteLength" : 432,
            "byteOffset" : 4848
        },
        {
            "buffer" : 0,
            "byteLength" : 288,
            "byteOffset" : 5280
        }
    ],
    "buffers" : [
        {
            "byteLength" : 5568,
            "uri" : "data:application/octet-stream;base64,"
        }
    ]
}
