{
    "asset" : {
        "generator" : "Khronos glTF Blender I/O v1.0.5",
        "version" : "2.0"
    },
    "scene" : 0,
    "scenes" : [
        {
            "name" : "Scene",
            "nodes" : [
                0,
                1
            ]
        }
    ],
    "nodes" : [
        {
            "mesh" : 0,
            "name" : "table_surface",
            "translation" : [
                0,
                1.9002796411514282,
                0
            ]
        },
        {
            "mesh" : 1,
            "name" : "table_legs",
            "scale" : [
                0.06433355808258057,
                0.9200671315193176,
                0.06433355808258057
            ],
            "translation" : [
                -2.2658069133758545,
                1.9013158082962036,
                -1.7529387474060059
            ]
        }
    ],
    "materials" : [
        {
            "doubleSided" : true,
            "name" : "Material.003",
            "pbrMetallicRoughness" : {
                "baseColorFactor" : [
                    0.3108133375644684,
                    0.12845902144908905,
                    0.06257688999176025,
                    1
                ],
                "metallicFactor" : 0,
                "roughnessFactor" : 1
            }
        }
    ],
    "meshes" : [
        {
            "name" : "Cube.072",
            "primitives" : [
                {
                    "attributes" : {
                        "POSITION" : 0,
                        "NORMAL" : 1,
                        "TEXCOORD_0" : 2
                    },
                    "indices" : 3,
                    "material" : 0
                }
            ]
        },
        {
            "name" : "Cylinder.000",
            "primitives" : [
                {
                    "attributes" : {
                        "POSITION" : 4,
                        "NORMAL" : 5,
                        "TEXCOORD_0" : 6
                    },
                    "indices" : 7,
                    "material" : 0
                }
            ]
        }
    ],
    "accessors" : [
        {
            "bufferView" : 0,
            "componentType" : 5126,
            "count" : 125,
            "max" : [
                2.4246408939361572,
                0.052132487297058105,
                1.9085140228271484
            ],
            "min" : [
                -2.4246408939361572,
                -0.0521320104598999,
                -1.9085140228271484
            ],
            "type" : "VEC3"
        },
        {
            "bufferView" : 1,
            "componentType" : 5126,
            "count" : 125,
            "type" : "VEC3"
        },
        {
            "bufferView" : 2,
            "componentType" : 5126,
            "count" : 125,
            "type" : "VEC2"
        },
        {
            "bufferView" : 3,
            "componentType" : 5123,
            "count" : 264,
            "type" : "SCALAR"
        },
        {
            "bufferView" : 4,
            "componentType" : 5126,
            "count" : 384,
            "max" : [
                71.49119567871094,
                -1.1920928955078125e-06,
                55.22996520996094
            ],
            "min" : [
                -1.05185067653656,
                -2.0000011920928955,
                -0.7346506118774414
            ],
            "type" : "VEC3"
        },
        {
            "bufferView" : 5,
            "componentType" : 5126,
            "count" : 384,
            "type" : "VEC3"
        },
        {
            "bufferView" : 6,
            "componentType" : 5126,
            "count" : 384,
            "type" : "VEC2"
        },
        {
            "bufferView" : 7,
            "componentType" : 5123,
            "count" : 720,
            "type" : "SCALAR"
        }
    ],
    "bufferViews" : [
        {
            "buffer" : 0,
            "byteLength" : 1500,
            "byteOffset" : 0
        },
        {
            "buffer" : 0,
            "byteLength" : 1500,
            "byteOffset" : 1500
        },
        {
            "buffer" : 0,
            "byteLength" : 1000,
            "byteOffset" : 3000
        },
        {
            "buffer" : 0,
            "byteLength" : 528,
            "byteOffset" : 4000
        },
        {
            "buffer" : 0,
            "byteLength" : 4608,
            "byteOffset" : 4528
        },
        {
            "buffer" : 0,
            "byteLength" : 4608,
            "byteOffset" : 9136
        },
        {
            "buffer" : 0,
            "byteLength" : 3072,
            "byteOffset" : 13744
        },
        {
            "buffer" : 0,
            "byteLength" : 1440,
            "byteOffset" : 16816
        }
    ],
    "buffers" : [
        {
            "byteLength" : 18256,
            "uri" : "data:application/octet-stream;base64,"
        }
    ]
}
