{
    "asset" : {
        "generator" : "Khronos glTF Blender I/O v1.0.5",
        "version" : "2.0"
    },
    "scene" : 0,
    "scenes" : [
        {
            "name" : "Scene",
            "nodes" : [
                0,
                1,
                2,
                3,
                4
            ]
        }
    ],
    "nodes" : [
        {
            "mesh" : 0,
            "name" : "Cylinder",
            "rotation" : [
                0.004396975506097078,
                0.6976237297058105,
                -0.0036635142751038074,
                -0.7164414525032043
            ],
            "scale" : [
                0.08682325482368469,
                0.0868232399225235,
                0.0868232473731041
            ],
            "translation" : [
                0.8023014664649963,
                1.3574315309524536,
                -0.03239290043711662
            ]
        },
        {
            "mesh" : 1,
            "name" : "tank",
            "rotation" : [
                0.5,
                -0.5,
                0.5,
                0.4999999701976776
            ],
            "scale" : [
                -0.0507991798222065,
                -0.0248578991740942,
                -0.02539958991110325
            ],
            "translation" : [
                1.221855878829956,
                1.612720012664795,
                -0.04000940918922424
            ]
        },
        {
            "mesh" : 2,
            "name" : "waterr\u00f6r",
            "rotation" : [
                0,
                0,
                -0.7071067690849304,
                0.7071068286895752
            ],
            "scale" : [
                -0.040455177426338196,
                -0.0445006899535656,
                -0.040455177426338196
            ],
            "translation" : [
                1.0556201934814453,
                1.612720012664795,
                -0.04000940918922424
            ]
        },
        {
            "mesh" : 3,
            "name" : "watenvelrd",
            "scale" : [
                1.1039894819259644,
                1.1039894819259644,
                0.46166083216667175
            ],
            "translation" : [
                -0.13246281445026398,
                1.4250982999801636,
                -0.047059595584869385
            ]
        },
        {
            "mesh" : 4,
            "name" : "watentank",
            "scale" : [
                0.12836742401123047,
                0.12683112919330597,
                0.24927611649036407
            ],
            "translation" : [
                1.2617413997650146,
                1.6746572256088257,
                -0.03929591551423073
            ]
        }
    ],
    "materials" : [
        {
            "doubleSided" : true,
            "name" : "Material.013",
            "pbrMetallicRoughness" : {
                "baseColorFactor" : [
                    0.025184910744428635,
                    0.053924307227134705,
                    0.8000000715255737,
                    1
                ],
                "metallicFactor" : 0,
                "roughnessFactor" : 0.5
            }
        },
        {
            "doubleSided" : true,
            "name" : "Material.007",
            "pbrMetallicRoughness" : {
                "baseColorFactor" : [
                    0.07227184623479843,
                    0.05951124429702759,
                    0.039546236395835876,
                    1
                ],
                "metallicFactor" : 0,
                "roughnessFactor" : 0.5
            }
        },
        {
            "doubleSided" : true,
            "name" : "Material.002",
            "pbrMetallicRoughness" : {
                "baseColorTexture" : {
                    "index" : 0,
                    "texCoord" : 0
                },
                "metallicFactor" : 0,
                "roughnessFactor" : 0.5
            }
        },
        {
            "doubleSided" : true,
            "name" : "Material.015",
            "pbrMetallicRoughness" : {
                "baseColorFactor" : [
                    0.016238156706094742,
                    0,
                    0.8000000715255737,
                    1
                ],
                "metallicFactor" : 0,
                "roughnessFactor" : 0.5
            }
        },
        {
            "doubleSided" : true,
            "name" : "Material.016",
            "pbrMetallicRoughness" : {
                "baseColorFactor" : [
                    0,
                    0.006803623400628567,
                    0.8000000715255737,
                    1
                ],
                "metallicFactor" : 0,
                "roughnessFactor" : 0.5
            }
        }
    ],
    "meshes" : [
        {
            "name" : "Cylinder.011",
            "primitives" : [
                {
                    "attributes" : {
                        "POSITION" : 0,
                        "NORMAL" : 1,
                        "TEXCOORD_0" : 2
                    },
                    "indices" : 3,
                    "material" : 0
                }
            ]
        },
        {
            "name" : "Plane.003",
            "primitives" : [
                {
                    "attributes" : {
                        "POSITION" : 4,
                        "NORMAL" : 5,
                        "TEXCOORD_0" : 6
                    },
                    "indices" : 7,
                    "material" : 1
                }
            ]
        },
        {
            "name" : "Cylinder",
            "primitives" : [
                {
                    "attributes" : {
                        "POSITION" : 8,
                        "NORMAL" : 9,
                        "TEXCOORD_0" : 10
                    },
                    "indices" : 11,
                    "material" : 2
                }
            ]
        },
        {
            "name" : "Plane.009",
            "primitives" : [
                {
                    "attributes" : {
                        "POSITION" : 12,
                        "NORMAL" : 13,
                        "TEXCOORD_0" : 14
                    },
                    "indices" : 15,
                    "material" : 3
                }
            ]
        },
        {
            "name" : "Plane.010",
            "primitives" : [
                {
                    "attributes" : {
                        "POSITION" : 16,
                        "NORMAL" : 17,
                        "TEXCOORD_0" : 18
                    },
                    "indices" : 19,
                    "material" : 4
                }
            ]
        }
    ],
    "textures" : [
        {
            "source" : 0
        }
    ],
    "images" : [
        {
            "bufferView" : 12,
            "mimeType" : "image/jpeg",
            "name" : "stel2"
        }
    ],
    "accessors" : [
        {
            "bufferView" : 0,
            "componentType" : 5126,
            "count" : 1136,
            "max" : [
                0.3068426847457886,
                4.790465354919434,
                0.3068426847457886
            ],
            "min" : [
                -0.3068426847457886,
                -0.00046539306640625,
                -0.3068426847457886
            ],
            "type" : "VEC3"
        },
        {
            "bufferView" : 1,
            "componentType" : 5126,
            "count" : 1136,
            "type" : "VEC3"
        },
        {
            "bufferView" : 2,
            "componentType" : 5126,
            "count" : 1136,
            "type" : "VEC2"
        },
        {
            "bufferView" : 3,
            "componentType" : 5123,
            "count" : 2292,
            "type" : "SCALAR"
        },
        {
            "bufferView" : 4,
            "componentType" : 5126,
            "count" : 56,
            "max" : [
                5.2397260665893555,
                6.878814697265625,
                5.046595573425293
            ],
            "min" : [
                -5.026782989501953,
                -4.6150078773498535,
                -5
            ],
            "type" : "VEC3"
        },
        {
            "bufferView" : 5,
            "componentType" : 5126,
            "count" : 56,
            "type" : "VEC3"
        },
        {
            "bufferView" : 6,
            "componentType" : 5126,
            "count" : 56,
            "type" : "VEC2"
        },
        {
            "bufferView" : 7,
            "componentType" : 5123,
            "count" : 84,
            "type" : "SCALAR"
        },
        {
            "bufferView" : 8,
            "componentType" : 5126,
            "count" : 128,
            "max" : [
                1,
                1,
                1
            ],
            "min" : [
                -1,
                -1,
                -1
            ],
            "type" : "VEC3"
        },
        {
            "bufferView" : 9,
            "componentType" : 5126,
            "count" : 128,
            "type" : "VEC3"
        },
        {
            "bufferView" : 10,
            "componentType" : 5126,
            "count" : 128,
            "type" : "VEC2"
        },
        {
            "bufferView" : 11,
            "componentType" : 5123,
            "count" : 192,
            "type" : "SCALAR"
        },
        {
            "bufferView" : 13,
            "componentType" : 5126,
            "count" : 1198,
            "max" : [
                1,
                0,
                1
            ],
            "min" : [
                -1,
                0,
                -1
            ],
            "type" : "VEC3"
        },
        {
            "bufferView" : 14,
            "componentType" : 5126,
            "count" : 1198,
            "type" : "VEC3"
        },
        {
            "bufferView" : 15,
            "componentType" : 5126,
            "count" : 1198,
            "type" : "VEC2"
        },
        {
            "bufferView" : 16,
            "componentType" : 5123,
            "count" : 5766,
            "type" : "SCALAR"
        },
        {
            "bufferView" : 17,
            "componentType" : 5126,
            "count" : 206,
            "max" : [
                1,
                0,
                1
            ],
            "min" : [
                -1,
                0,
                -1
            ],
            "type" : "VEC3"
        },
        {
            "bufferView" : 18,
            "componentType" : 5126,
            "count" : 206,
            "type" : "VEC3"
        },
        {
            "bufferView" : 19,
            "componentType" : 5126,
            "count" : 206,
            "type" : "VEC2"
        },
        {
            "bufferView" : 20,
            "componentType" : 5123,
            "count" : 726,
            "type" : "SCALAR"
        }
    ],
    "bufferViews" : [
        {
            "buffer" : 0,
            "byteLength" : 13632,
            "byteOffset" : 0
        },
        {
            "buffer" : 0,
            "byteLength" : 13632,
            "byteOffset" : 13632
        },
        {
            "buffer" : 0,
            "byteLength" : 9088,
            "byteOffset" : 27264
        },
        {
            "buffer" : 0,
            "byteLength" : 4584,
            "byteOffset" : 36352
        },
        {
            "buffer" : 0,
            "byteLength" : 672,
            "byteOffset" : 40936
        },
        {
            "buffer" : 0,
            "byteLength" : 672,
            "byteOffset" : 41608
        },
        {
            "buffer" : 0,
            "byteLength" : 448,
            "byteOffset" : 42280
        },
        {
            "buffer" : 0,
            "byteLength" : 168,
            "byteOffset" : 42728
        },
        {
            "buffer" : 0,
            "byteLength" : 1536,
            "byteOffset" : 42896
        },
        {
            "buffer" : 0,
            "byteLength" : 1536,
            "byteOffset" : 44432
        },
        {
            "buffer" : 0,
            "byteLength" : 1024,
            "byteOffset" : 45968
        },
        {
            "buffer" : 0,
            "byteLength" : 384,
            "byteOffset" : 46992
        },
        {
            "buffer" : 0,
            "byteLength" : 142886,
            "byteOffset" : 47376
        },
        {
            "buffer" : 0,
            "byteLength" : 14376,
            "byteOffset" : 190264
        },
        {
            "buffer" : 0,
            "byteLength" : 14376,
            "byteOffset" : 204640
        },
        {
            "buffer" : 0,
            "byteLength" : 9584,
            "byteOffset" : 219016
        },
        {
            "buffer" : 0,
            "byteLength" : 11532,
            "byteOffset" : 228600
        },
        {
            "buffer" : 0,
            "byteLength" : 2472,
            "byteOffset" : 240132
        },
        {
            "buffer" : 0,
            "byteLength" : 2472,
            "byteOffset" : 242604
        },
        {
            "buffer" : 0,
            "byteLength" : 1648,
            "byteOffset" : 245076
        },
        {
            "buffer" : 0,
            "byteLength" : 1452,
            "byteOffset" : 246724
        }
    ],
    "buffers" : [
        {
            "byteLength" : 248176,
            "uri" : "data:application/octet-stream;base64,"
        }
    ]
}
