{
    "asset" : {
        "generator" : "Khronos glTF Blender I/O v1.0.5",
        "version" : "2.0"
    },
    "scene" : 0,
    "scenes" : [
        {
            "name" : "Scene",
            "nodes" : [
                0,
                1,
                2,
                3,
                4
            ]
        },
        {
            "name" : "Scene.001"
        }
    ],
    "nodes" : [
        {
            "mesh" : 0,
            "name" : "Cylinder",
            "rotation" : [
                -0.004670807160437107,
                -0.8717142939567566,
                -0.0033073085360229015,
                -0.4899810254573822
            ],
            "scale" : [
                0.08682325482368469,
                0.0868232399225235,
                0.0868232473731041
            ],
            "translation" : [
                -0.702094554901123,
                1.9426722526550293,
                0.7950071096420288
            ]
        },
        {
            "mesh" : 1,
            "name" : "tank",
            "rotation" : [
                0.35484638810157776,
                0.6116241216659546,
                -0.6116241216659546,
                0.35484635829925537
            ],
            "scale" : [
                -0.0507991798222065,
                -0.0248578991740942,
                -0.02539958991110325
            ],
            "translation" : [
                -1.0625419616699219,
                2.197960615158081,
                1.009859323501587
            ]
        },
        {
            "mesh" : 2,
            "name" : "watentank",
            "rotation" : [
                0,
                0.9664704203605652,
                0,
                -0.25677794218063354
            ],
            "scale" : [
                0.12836742401123047,
                0.12683112919330597,
                0.24927611649036407
            ],
            "translation" : [
                -1.0975219011306763,
                2.2598977088928223,
                1.029036521911621
            ]
        },
        {
            "mesh" : 3,
            "name" : "watenvelrd",
            "rotation" : [
                0,
                0.9664704203605652,
                0,
                -0.25677794218063354
            ],
            "scale" : [
                1.1039894819259644,
                1.1039894819259644,
                0.46166083216667175
            ],
            "translation" : [
                -0.05262112617492676,
                2.0156776905059814,
                0.41666677594184875
            ]
        },
        {
            "mesh" : 4,
            "name" : "waterr\u00f6r",
            "rotation" : [
                -0.6833978295326233,
                0.6833977699279785,
                0.1815694123506546,
                -0.1815694272518158
            ],
            "scale" : [
                -0.040455177426338196,
                -0.0445006899535656,
                -0.040455177426338196
            ],
            "translation" : [
                -0.9182277917861938,
                2.197960615158081,
                0.9273505210876465
            ]
        }
    ],
    "materials" : [
        {
            "doubleSided" : true,
            "name" : "Material.021",
            "pbrMetallicRoughness" : {
                "baseColorFactor" : [
                    0.025184910744428635,
                    0.053924307227134705,
                    0.8000000715255737,
                    1
                ],
                "metallicFactor" : 0,
                "roughnessFactor" : 0.5
            }
        },
        {
            "doubleSided" : true,
            "name" : "Material.020",
            "pbrMetallicRoughness" : {
                "baseColorFactor" : [
                    0.07227184623479843,
                    0.05951124429702759,
                    0.039546236395835876,
                    1
                ],
                "metallicFactor" : 0,
                "roughnessFactor" : 0.5
            }
        },
        {
            "doubleSided" : true,
            "name" : "Material.019",
            "pbrMetallicRoughness" : {
                "baseColorFactor" : [
                    0,
                    0.006803623400628567,
                    0.8000000715255737,
                    1
                ],
                "metallicFactor" : 0,
                "roughnessFactor" : 0.5
            }
        },
        {
            "doubleSided" : true,
            "name" : "Material.018",
            "pbrMetallicRoughness" : {
                "baseColorFactor" : [
                    0.016238156706094742,
                    0,
                    0.8000000715255737,
                    1
                ],
                "metallicFactor" : 0,
                "roughnessFactor" : 0.5
            }
        },
        {
            "doubleSided" : true,
            "name" : "Material.017",
            "pbrMetallicRoughness" : {
                "baseColorTexture" : {
                    "index" : 0,
                    "texCoord" : 0
                },
                "metallicFactor" : 0,
                "roughnessFactor" : 0.5
            }
        }
    ],
    "meshes" : [
        {
            "name" : "Cylinder.009",
            "primitives" : [
                {
                    "attributes" : {
                        "POSITION" : 0,
                        "NORMAL" : 1,
                        "TEXCOORD_0" : 2
                    },
                    "indices" : 3,
                    "material" : 0
                }
            ]
        },
        {
            "name" : "Plane.005",
            "primitives" : [
                {
                    "attributes" : {
                        "POSITION" : 4,
                        "NORMAL" : 5,
                        "TEXCOORD_0" : 6
                    },
                    "indices" : 7,
                    "material" : 1
                }
            ]
        },
        {
            "name" : "Plane.004",
            "primitives" : [
                {
                    "attributes" : {
                        "POSITION" : 8,
                        "NORMAL" : 9,
                        "TEXCOORD_0" : 10
                    },
                    "indices" : 11,
                    "material" : 2
                }
            ]
        },
        {
            "name" : "Plane.002",
            "primitives" : [
                {
                    "attributes" : {
                        "POSITION" : 12,
                        "NORMAL" : 13,
                        "TEXCOORD_0" : 14
                    },
                    "indices" : 15,
                    "material" : 3
                }
            ]
        },
        {
            "name" : "Cylinder.008",
            "primitives" : [
                {
                    "attributes" : {
                        "POSITION" : 16,
                        "NORMAL" : 17,
                        "TEXCOORD_0" : 18
                    },
                    "indices" : 19,
                    "material" : 4
                }
            ]
        }
    ],
    "textures" : [
        {
            "source" : 0
        }
    ],
    "images" : [
        {
            "bufferView" : 20,
            "mimeType" : "image/jpeg",
            "name" : "stel2"
        }
    ],
    "accessors" : [
        {
            "bufferView" : 0,
            "componentType" : 5126,
            "count" : 746,
            "max" : [
                0.3494754731655121,
                3.345046281814575,
                0.3022308945655823
            ],
            "min" : [
                -0.32760199904441833,
                -0.024404577910900116,
                -3.061382532119751
            ],
            "type" : "VEC3"
        },
        {
            "bufferView" : 1,
            "componentType" : 5126,
            "count" : 746,
            "type" : "VEC3"
        },
        {
            "bufferView" : 2,
            "componentType" : 5126,
            "count" : 746,
            "type" : "VEC2"
        },
        {
            "bufferView" : 3,
            "componentType" : 5123,
            "count" : 948,
            "type" : "SCALAR"
        },
        {
            "bufferView" : 4,
            "componentType" : 5126,
            "count" : 52,
            "max" : [
                5.2397260665893555,
                6.878814697265625,
                5.046595573425293
            ],
            "min" : [
                -5.026782989501953,
                -4.6150078773498535,
                -5
            ],
            "type" : "VEC3"
        },
        {
            "bufferView" : 5,
            "componentType" : 5126,
            "count" : 52,
            "type" : "VEC3"
        },
        {
            "bufferView" : 6,
            "componentType" : 5126,
            "count" : 52,
            "type" : "VEC2"
        },
        {
            "bufferView" : 7,
            "componentType" : 5123,
            "count" : 78,
            "type" : "SCALAR"
        },
        {
            "bufferView" : 8,
            "componentType" : 5126,
            "count" : 251,
            "max" : [
                1,
                0.09227704256772995,
                1
            ],
            "min" : [
                -1,
                -0.09517745673656464,
                -1
            ],
            "type" : "VEC3"
        },
        {
            "bufferView" : 9,
            "componentType" : 5126,
            "count" : 251,
            "type" : "VEC3"
        },
        {
            "bufferView" : 10,
            "componentType" : 5126,
            "count" : 251,
            "type" : "VEC2"
        },
        {
            "bufferView" : 11,
            "componentType" : 5123,
            "count" : 309,
            "type" : "SCALAR"
        },
        {
            "bufferView" : 12,
            "componentType" : 5126,
            "count" : 1627,
            "max" : [
                1,
                0.01068893913179636,
                1
            ],
            "min" : [
                -1,
                -0.00912102684378624,
                -1
            ],
            "type" : "VEC3"
        },
        {
            "bufferView" : 13,
            "componentType" : 5126,
            "count" : 1627,
            "type" : "VEC3"
        },
        {
            "bufferView" : 14,
            "componentType" : 5126,
            "count" : 1627,
            "type" : "VEC2"
        },
        {
            "bufferView" : 15,
            "componentType" : 5123,
            "count" : 1857,
            "type" : "SCALAR"
        },
        {
            "bufferView" : 16,
            "componentType" : 5126,
            "count" : 128,
            "max" : [
                1,
                1,
                1
            ],
            "min" : [
                -1,
                -1,
                -1
            ],
            "type" : "VEC3"
        },
        {
            "bufferView" : 17,
            "componentType" : 5126,
            "count" : 128,
            "type" : "VEC3"
        },
        {
            "bufferView" : 18,
            "componentType" : 5126,
            "count" : 128,
            "type" : "VEC2"
        },
        {
            "bufferView" : 19,
            "componentType" : 5123,
            "count" : 192,
            "type" : "SCALAR"
        }
    ],
    "bufferViews" : [
        {
            "buffer" : 0,
            "byteLength" : 8952,
            "byteOffset" : 0
        },
        {
            "buffer" : 0,
            "byteLength" : 8952,
            "byteOffset" : 8952
        },
        {
            "buffer" : 0,
            "byteLength" : 5968,
            "byteOffset" : 17904
        },
        {
            "buffer" : 0,
            "byteLength" : 1896,
            "byteOffset" : 23872
        },
        {
            "buffer" : 0,
            "byteLength" : 624,
            "byteOffset" : 25768
        },
        {
            "buffer" : 0,
            "byteLength" : 624,
            "byteOffset" : 26392
        },
        {
            "buffer" : 0,
            "byteLength" : 416,
            "byteOffset" : 27016
        },
        {
            "buffer" : 0,
            "byteLength" : 156,
            "byteOffset" : 27432
        },
        {
            "buffer" : 0,
            "byteLength" : 3012,
            "byteOffset" : 27588
        },
        {
            "buffer" : 0,
            "byteLength" : 3012,
            "byteOffset" : 30600
        },
        {
            "buffer" : 0,
            "byteLength" : 2008,
            "byteOffset" : 33612
        },
        {
            "buffer" : 0,
            "byteLength" : 618,
            "byteOffset" : 35620
        },
        {
            "buffer" : 0,
            "byteLength" : 19524,
            "byteOffset" : 36240
        },
        {
            "buffer" : 0,
            "byteLength" : 19524,
            "byteOffset" : 55764
        },
        {
            "buffer" : 0,
            "byteLength" : 13016,
            "byteOffset" : 75288
        },
        {
            "buffer" : 0,
            "byteLength" : 3714,
            "byteOffset" : 88304
        },
        {
            "buffer" : 0,
            "byteLength" : 1536,
            "byteOffset" : 92020
        },
        {
            "buffer" : 0,
            "byteLength" : 1536,
            "byteOffset" : 93556
        },
        {
            "buffer" : 0,
            "byteLength" : 1024,
            "byteOffset" : 95092
        },
        {
            "buffer" : 0,
            "byteLength" : 384,
            "byteOffset" : 96116
        },
        {
            "buffer" : 0,
            "byteLength" : 142886,
            "byteOffset" : 96500
        }
    ],
    "buffers" : [
        {
            "byteLength" : 239388,
            "uri" : "data:application/octet-stream;base64,"
        }
    ]
}
