{
    "asset" : {
        "generator" : "Khronos glTF Blender I/O v1.0.5",
        "version" : "2.0"
    },
    "scene" : 0,
    "scenes" : [
        {
            "name" : "Scene",
            "nodes" : [
                0,
                1,
                2,
                3,
                4,
                5,
                6,
                7,
                8,
                9,
                10
            ]
        }
    ],
    "nodes" : [
        {
            "name" : "Camera",
            "rotation" : [
                0.483536034822464,
                0.33687159419059753,
                -0.20870360732078552,
                0.7804827094078064
            ],
            "translation" : [
                7.358891487121582,
                4.958309173583984,
                6.925790786743164
            ]
        },
        {
            "name" : "BezierCurve",
            "scale" : [
                -0.24690313637256622,
                -0.24690313637256622,
                -0.24690313637256622
            ],
            "translation" : [
                0.9139592051506042,
                1.5674699544906616,
                -0.056648336350917816
            ]
        },
        {
            "name" : "Camera.001",
            "rotation" : [
                0.483536034822464,
                0.33687159419059753,
                -0.20870360732078552,
                0.7804827094078064
            ],
            "scale" : [
                -0.025399591773748398,
                -0.02539958991110325,
                -0.025399591773748398
            ],
            "translation" : [
                1.3950446844100952,
                1.649120569229126,
                -0.15492373704910278
            ]
        },
        {
            "mesh" : 0,
            "name" : "Cylinder",
            "rotation" : [
                0,
                0,
                -0.7071067690849304,
                0.7071068286895752
            ],
            "scale" : [
                -0.040455177426338196,
                -0.0445006899535656,
                -0.040455177426338196
            ],
            "translation" : [
                1.0556201934814453,
                1.612720012664795,
                -0.04000940918922424
            ]
        },
        {
            "mesh" : 1,
            "name" : "Plane.003",
            "rotation" : [
                0.5,
                -0.5,
                0.5,
                0.4999999701976776
            ],
            "scale" : [
                -0.0507991798222065,
                -0.0248578991740942,
                -0.02539958991110325
            ],
            "translation" : [
                1.221855878829956,
                1.612720012664795,
                -0.04000940918922424
            ]
        },
        {
            "mesh" : 2,
            "name" : "Plane.001",
            "scale" : [
                0.2370457798242569,
                0.2370457798242569,
                0.36409181356430054
            ],
            "translation" : [
                0.711155891418457,
                1.410866379737854,
                -0.011534729972481728
            ]
        },
        {
            "mesh" : 3,
            "name" : "Plane.002",
            "scale" : [
                0.12857620418071747,
                0.12857620418071747,
                0.26941680908203125
            ],
            "translation" : [
                1.2596547603607178,
                1.6965581178665161,
                -0.03415411338210106
            ]
        },
        {
            "mesh" : 4,
            "name" : "Plane.004",
            "scale" : [
                0.2370457798242569,
                0.2370457798242569,
                0.36409181356430054
            ],
            "translation" : [
                0.2599720358848572,
                1.4196854829788208,
                -0.004492044448852539
            ]
        },
        {
            "mesh" : 5,
            "name" : "Plane.005",
            "scale" : [
                0.2370457798242569,
                0.2370457798242569,
                0.36409181356430054
            ],
            "translation" : [
                -0.20027785003185272,
                1.4169418811798096,
                0.006882309913635254
            ]
        },
        {
            "mesh" : 6,
            "name" : "Plane.006",
            "scale" : [
                0.2370457798242569,
                0.2370457798242569,
                0.36409181356430054
            ],
            "translation" : [
                -0.6660431623458862,
                1.418147325515747,
                0.05678179860115051
            ]
        },
        {
            "mesh" : 7,
            "name" : "Plane.007",
            "scale" : [
                0.14287026226520538,
                0.14287026226520538,
                0.21944236755371094
            ],
            "translation" : [
                -1.0352143049240112,
                1.4313088655471802,
                0.028578490018844604
            ]
        }
    ],
    "materials" : [
        {
            "doubleSided" : true,
            "name" : "Material.002",
            "pbrMetallicRoughness" : {
                "baseColorTexture" : {
                    "index" : 0,
                    "texCoord" : 0
                },
                "metallicFactor" : 0,
                "roughnessFactor" : 0.5
            }
        },
        {
            "doubleSided" : true,
            "name" : "Material.007",
            "pbrMetallicRoughness" : {
                "baseColorFactor" : [
                    0.07227184623479843,
                    0.05951124429702759,
                    0.039546236395835876,
                    1
                ],
                "metallicFactor" : 0,
                "roughnessFactor" : 0.5
            }
        },
        {
            "doubleSided" : true,
            "name" : "Material.004",
            "pbrMetallicRoughness" : {
                "baseColorFactor" : [
                    0,
                    0.0008352274890057743,
                    0.8000000715255737,
                    1
                ],
                "metallicFactor" : 0,
                "roughnessFactor" : 0.5
            }
        },
        {
            "doubleSided" : true,
            "name" : "Material.005",
            "pbrMetallicRoughness" : {
                "baseColorFactor" : [
                    0,
                    0.008850209414958954,
                    0.8000000715255737,
                    1
                ],
                "metallicFactor" : 0,
                "roughnessFactor" : 0.5
            }
        }
    ],
    "meshes" : [
        {
            "name" : "Cylinder",
            "primitives" : [
                {
                    "attributes" : {
                        "POSITION" : 0,
                        "NORMAL" : 1,
                        "TEXCOORD_0" : 2
                    },
                    "indices" : 3,
                    "material" : 0
                }
            ]
        },
        {
            "name" : "Plane.003",
            "primitives" : [
                {
                    "attributes" : {
                        "POSITION" : 4,
                        "NORMAL" : 5,
                        "TEXCOORD_0" : 6
                    },
                    "indices" : 7,
                    "material" : 1
                }
            ]
        },
        {
            "name" : "Plane.001",
            "primitives" : [
                {
                    "attributes" : {
                        "POSITION" : 8,
                        "NORMAL" : 9,
                        "TEXCOORD_0" : 10
                    },
                    "indices" : 11,
                    "material" : 2
                }
            ]
        },
        {
            "name" : "Plane.002",
            "primitives" : [
                {
                    "attributes" : {
                        "POSITION" : 12,
                        "NORMAL" : 13,
                        "TEXCOORD_0" : 14
                    },
                    "indices" : 15,
                    "material" : 3
                }
            ]
        },
        {
            "name" : "Plane.004",
            "primitives" : [
                {
                    "attributes" : {
                        "POSITION" : 16,
                        "NORMAL" : 17,
                        "TEXCOORD_0" : 18
                    },
                    "indices" : 11,
                    "material" : 2
                }
            ]
        },
        {
            "name" : "Plane.005",
            "primitives" : [
                {
                    "attributes" : {
                        "POSITION" : 19,
                        "NORMAL" : 20,
                        "TEXCOORD_0" : 21
                    },
                    "indices" : 11,
                    "material" : 2
                }
            ]
        },
        {
            "name" : "Plane.006",
            "primitives" : [
                {
                    "attributes" : {
                        "POSITION" : 22,
                        "NORMAL" : 23,
                        "TEXCOORD_0" : 24
                    },
                    "indices" : 11,
                    "material" : 2
                }
            ]
        },
        {
            "name" : "Plane.007",
            "primitives" : [
                {
                    "attributes" : {
                        "POSITION" : 25,
                        "NORMAL" : 26,
                        "TEXCOORD_0" : 27
                    },
                    "indices" : 11,
                    "material" : 2
                }
            ]
        }
    ],
    "textures" : [
        {
            "source" : 0
        }
    ],
    "images" : [
        {
            "bufferView" : 4,
            "mimeType" : "image/jpeg",
            "name" : "stel2"
        }
    ],
    "accessors" : [
        {
            "bufferView" : 0,
            "componentType" : 5126,
            "count" : 128,
            "max" : [
                1,
                1,
                1
            ],
            "min" : [
                -1,
                -1,
                -1
            ],
            "type" : "VEC3"
        },
        {
            "bufferView" : 1,
            "componentType" : 5126,
            "count" : 128,
            "type" : "VEC3"
        },
        {
            "bufferView" : 2,
            "componentType" : 5126,
            "count" : 128,
            "type" : "VEC2"
        },
        {
            "bufferView" : 3,
            "componentType" : 5123,
            "count" : 192,
            "type" : "SCALAR"
        },
        {
            "bufferView" : 5,
            "componentType" : 5126,
            "count" : 56,
            "max" : [
                5.2397260665893555,
                6.878814697265625,
                5.046595573425293
            ],
            "min" : [
                -5.026782989501953,
                -4.6150078773498535,
                -5
            ],
            "type" : "VEC3"
        },
        {
            "bufferView" : 6,
            "componentType" : 5126,
            "count" : 56,
            "type" : "VEC3"
        },
        {
            "bufferView" : 7,
            "componentType" : 5126,
            "count" : 56,
            "type" : "VEC2"
        },
        {
            "bufferView" : 8,
            "componentType" : 5123,
            "count" : 84,
            "type" : "SCALAR"
        },
        {
            "bufferView" : 9,
            "componentType" : 5126,
            "count" : 2552,
            "max" : [
                1,
                0.02327488549053669,
                1
            ],
            "min" : [
                -1.0002384185791016,
                -0.12968385219573975,
                -1.0003215074539185
            ],
            "type" : "VEC3"
        },
        {
            "bufferView" : 10,
            "componentType" : 5126,
            "count" : 2552,
            "type" : "VEC3"
        },
        {
            "bufferView" : 11,
            "componentType" : 5126,
            "count" : 2552,
            "type" : "VEC2"
        },
        {
            "bufferView" : 12,
            "componentType" : 5123,
            "count" : 5796,
            "type" : "SCALAR"
        },
        {
            "bufferView" : 13,
            "componentType" : 5126,
            "count" : 1595,
            "max" : [
                1,
                0.0801934003829956,
                0.9293060898780823
            ],
            "min" : [
                -1,
                -1.1555110216140747,
                -0.9293060898780823
            ],
            "type" : "VEC3"
        },
        {
            "bufferView" : 14,
            "componentType" : 5126,
            "count" : 1595,
            "type" : "VEC3"
        },
        {
            "bufferView" : 15,
            "componentType" : 5126,
            "count" : 1595,
            "type" : "VEC2"
        },
        {
            "bufferView" : 16,
            "componentType" : 5123,
            "count" : 3456,
            "type" : "SCALAR"
        },
        {
            "bufferView" : 17,
            "componentType" : 5126,
            "count" : 2552,
            "max" : [
                1,
                0.02327488549053669,
                1
            ],
            "min" : [
                -1.0002384185791016,
                -0.12968385219573975,
                -1.0003215074539185
            ],
            "type" : "VEC3"
        },
        {
            "bufferView" : 18,
            "componentType" : 5126,
            "count" : 2552,
            "type" : "VEC3"
        },
        {
            "bufferView" : 19,
            "componentType" : 5126,
            "count" : 2552,
            "type" : "VEC2"
        },
        {
            "bufferView" : 20,
            "componentType" : 5126,
            "count" : 2552,
            "max" : [
                1,
                0.02327488549053669,
                1
            ],
            "min" : [
                -1.0002384185791016,
                -0.12968385219573975,
                -1.0003215074539185
            ],
            "type" : "VEC3"
        },
        {
            "bufferView" : 21,
            "componentType" : 5126,
            "count" : 2552,
            "type" : "VEC3"
        },
        {
            "bufferView" : 22,
            "componentType" : 5126,
            "count" : 2552,
            "type" : "VEC2"
        },
        {
            "bufferView" : 23,
            "componentType" : 5126,
            "count" : 2552,
            "max" : [
                1,
                0.02327488549053669,
                1
            ],
            "min" : [
                -1.0002384185791016,
                -0.12968385219573975,
                -1.0003215074539185
            ],
            "type" : "VEC3"
        },
        {
            "bufferView" : 24,
            "componentType" : 5126,
            "count" : 2552,
            "type" : "VEC3"
        },
        {
            "bufferView" : 25,
            "componentType" : 5126,
            "count" : 2552,
            "type" : "VEC2"
        },
        {
            "bufferView" : 26,
            "componentType" : 5126,
            "count" : 2552,
            "max" : [
                1,
                0.02327488549053669,
                1
            ],
            "min" : [
                -1.0002384185791016,
                -0.12968385219573975,
                -1.0003215074539185
            ],
            "type" : "VEC3"
        },
        {
            "bufferView" : 27,
            "componentType" : 5126,
            "count" : 2552,
            "type" : "VEC3"
        },
        {
            "bufferView" : 28,
            "componentType" : 5126,
            "count" : 2552,
            "type" : "VEC2"
        }
    ],
    "bufferViews" : [
        {
            "buffer" : 0,
            "byteLength" : 1536,
            "byteOffset" : 0
        },
        {
            "buffer" : 0,
            "byteLength" : 1536,
            "byteOffset" : 1536
        },
        {
            "buffer" : 0,
            "byteLength" : 1024,
            "byteOffset" : 3072
        },
        {
            "buffer" : 0,
            "byteLength" : 384,
            "byteOffset" : 4096
        },
        {
            "buffer" : 0,
            "byteLength" : 142886,
            "byteOffset" : 4480
        },
        {
            "buffer" : 0,
            "byteLength" : 672,
            "byteOffset" : 147368
        },
        {
            "buffer" : 0,
            "byteLength" : 672,
            "byteOffset" : 148040
        },
        {
            "buffer" : 0,
            "byteLength" : 448,
            "byteOffset" : 148712
        },
        {
            "buffer" : 0,
            "byteLength" : 168,
            "byteOffset" : 149160
        },
        {
            "buffer" : 0,
            "byteLength" : 30624,
            "byteOffset" : 149328
        },
        {
            "buffer" : 0,
            "byteLength" : 30624,
            "byteOffset" : 179952
        },
        {
            "buffer" : 0,
            "byteLength" : 20416,
            "byteOffset" : 210576
        },
        {
            "buffer" : 0,
            "byteLength" : 11592,
            "byteOffset" : 230992
        },
        {
            "buffer" : 0,
            "byteLength" : 19140,
            "byteOffset" : 242584
        },
        {
            "buffer" : 0,
            "byteLength" : 19140,
            "byteOffset" : 261724
        },
        {
            "buffer" : 0,
            "byteLength" : 12760,
            "byteOffset" : 280864
        },
        {
            "buffer" : 0,
            "byteLength" : 6912,
            "byteOffset" : 293624
        },
        {
            "buffer" : 0,
            "byteLength" : 30624,
            "byteOffset" : 300536
        },
        {
            "buffer" : 0,
            "byteLength" : 30624,
            "byteOffset" : 331160
        },
        {
            "buffer" : 0,
            "byteLength" : 20416,
            "byteOffset" : 361784
        },
        {
            "buffer" : 0,
            "byteLength" : 30624,
            "byteOffset" : 382200
        },
        {
            "buffer" : 0,
            "byteLength" : 30624,
            "byteOffset" : 412824
        },
        {
            "buffer" : 0,
            "byteLength" : 20416,
            "byteOffset" : 443448
        },
        {
            "buffer" : 0,
            "byteLength" : 30624,
            "byteOffset" : 463864
        },
        {
            "buffer" : 0,
            "byteLength" : 30624,
            "byteOffset" : 494488
        },
        {
            "buffer" : 0,
            "byteLength" : 20416,
            "byteOffset" : 525112
        },
        {
            "buffer" : 0,
            "byteLength" : 30624,
            "byteOffset" : 545528
        },
        {
            "buffer" : 0,
            "byteLength" : 30624,
            "byteOffset" : 576152
        },
        {
            "buffer" : 0,
            "byteLength" : 20416,
            "byteOffset" : 606776
        }
    ],
    "buffers" : [
        {
            "byteLength" : 627192,
            "uri" : "data:application/octet-stream;base64,"
        }
    ]
}
