{
    "asset" : {
        "generator" : "Khronos glTF Blender I/O v1.0.5",
        "version" : "2.0"
    },
    "scene" : 0,
    "scenes" : [
        {
            "name" : "Scene",
            "nodes" : [
                0,
                1
            ]
        }
    ],
    "nodes" : [
        {
            "mesh" : 0,
            "name" : "windmill_rotor",
            "rotation" : [
                0,
                0.946394681930542,
                0,
                0.3230126202106476
            ],
            "scale" : [
                0.004087680485099554,
                0.004087680485099554,
                0.004087680485099554
            ],
            "translation" : [
                0.7347520589828491,
                2.3683037757873535,
                0.8219963908195496
            ]
        },
        {
            "mesh" : 1,
            "name" : "windmill_body",
            "rotation" : [
                -0.6692020893096924,
                0.6692020297050476,
                -0.22840440273284912,
                0.22840441763401031
            ],
            "scale" : [
                1,
                6,
                1
            ],
            "translation" : [
                0.7507520318031311,
                2.3683037757873535,
                0.8343573808670044
            ]
        }
    ],
    "meshes" : [
        {
            "name" : "Cube.045",
            "primitives" : [
                {
                    "attributes" : {
                        "POSITION" : 0,
                        "NORMAL" : 1,
                        "TEXCOORD_0" : 2
                    },
                    "indices" : 3
                }
            ]
        },
        {
            "name" : "Cylinder.000",
            "primitives" : [
                {
                    "attributes" : {
                        "POSITION" : 4,
                        "NORMAL" : 5,
                        "TEXCOORD_0" : 6
                    },
                    "indices" : 7
                }
            ]
        }
    ],
    "accessors" : [
        {
            "bufferView" : 0,
            "componentType" : 5126,
            "count" : 262,
            "max" : [
                0.44999998807907104,
                41.2688102722168,
                35.63747024536133
            ],
            "min" : [
                -0.44999998807907104,
                -21.23149871826172,
                -36.084571838378906
            ],
            "type" : "VEC3"
        },
        {
            "bufferView" : 1,
            "componentType" : 5126,
            "count" : 262,
            "type" : "VEC3"
        },
        {
            "bufferView" : 2,
            "componentType" : 5126,
            "count" : 262,
            "type" : "VEC2"
        },
        {
            "bufferView" : 3,
            "componentType" : 5123,
            "count" : 396,
            "type" : "SCALAR"
        },
        {
            "bufferView" : 4,
            "componentType" : 5126,
            "count" : 288,
            "max" : [
                0.3589819073677063,
                0.004999999888241291,
                0.017309239134192467
            ],
            "min" : [
                -0.010842147283256054,
                -0.004999999888241291,
                -0.017309296876192093
            ],
            "type" : "VEC3"
        },
        {
            "bufferView" : 5,
            "componentType" : 5126,
            "count" : 288,
            "type" : "VEC3"
        },
        {
            "bufferView" : 6,
            "componentType" : 5126,
            "count" : 288,
            "type" : "VEC2"
        },
        {
            "bufferView" : 7,
            "componentType" : 5123,
            "count" : 480,
            "type" : "SCALAR"
        }
    ],
    "bufferViews" : [
        {
            "buffer" : 0,
            "byteLength" : 3144,
            "byteOffset" : 0
        },
        {
            "buffer" : 0,
            "byteLength" : 3144,
            "byteOffset" : 3144
        },
        {
            "buffer" : 0,
            "byteLength" : 2096,
            "byteOffset" : 6288
        },
        {
            "buffer" : 0,
            "byteLength" : 792,
            "byteOffset" : 8384
        },
        {
            "buffer" : 0,
            "byteLength" : 3456,
            "byteOffset" : 9176
        },
        {
            "buffer" : 0,
            "byteLength" : 3456,
            "byteOffset" : 12632
        },
        {
            "buffer" : 0,
            "byteLength" : 2304,
            "byteOffset" : 16088
        },
        {
            "buffer" : 0,
            "byteLength" : 960,
            "byteOffset" : 18392
        }
    ],
    "buffers" : [
        {
            "byteLength" : 19352,
            "uri" : "data:application/octet-stream;base64,"
        }
    ]
}
