{
    "asset" : {
        "generator" : "Khronos glTF Blender I/O v1.0.5",
        "version" : "2.0"
    },
    "scene" : 0,
    "scenes" : [
        {
            "name" : "Scene",
            "nodes" : [
                0,
                1,
                2,
                3,
                4,
                5,
                6,
                7,
                8
            ]
        }
    ],
    "nodes" : [
        {
            "mesh" : 0,
            "name" : "Cube.000",
            "rotation" : [
                0,
                0.9994059205055237,
                0,
                0.03446535766124725
            ],
            "scale" : [
                0.004087680485099554,
                0.004087680485099554,
                0.004087680485099554
            ],
            "translation" : [
                0.45975008606910706,
                1.793317437171936,
                -0.8936415910720825
            ]
        },
        {
            "mesh" : 1,
            "name" : "Cube.002",
            "rotation" : [
                0,
                0.9994059205055237,
                0,
                0.03446535766124725
            ],
            "scale" : [
                0.004087680485099554,
                0.004087680485099554,
                0.004087680485099554
            ],
            "translation" : [
                0.7071012258529663,
                1.859643816947937,
                -0.6763938665390015
            ]
        },
        {
            "mesh" : 2,
            "name" : "Cube.003",
            "rotation" : [
                0,
                0.9994059205055237,
                0,
                0.03446535766124725
            ],
            "scale" : [
                0.004087680485099554,
                0.004087680485099554,
                0.004087680485099554
            ],
            "translation" : [
                0.5949912071228027,
                1.7843931913375854,
                -0.48678815364837646
            ]
        },
        {
            "mesh" : 3,
            "name" : "Cylinder.001",
            "rotation" : [
                0,
                0.9994059205055237,
                0,
                0.03446535766124725
            ],
            "scale" : [
                1,
                35.23999786376953,
                1
            ],
            "translation" : [
                0.7314995527267456,
                1.8530622720718384,
                -0.6741001009941101
            ]
        },
        {
            "mesh" : 4,
            "name" : "Cylinder.002",
            "rotation" : [
                -0.7066867351531982,
                0.7066866755485535,
                -0.02437068708240986,
                0.024370688945055008
            ],
            "scale" : [
                1,
                6,
                1
            ],
            "translation" : [
                0.7272719144821167,
                1.859643816947937,
                -0.6750016808509827
            ]
        },
        {
            "mesh" : 5,
            "name" : "Cylinder.003",
            "rotation" : [
                -0.7066867351531982,
                0.7066866755485535,
                -0.02437068708240986,
                0.024370688945055008
            ],
            "scale" : [
                1,
                6,
                1
            ],
            "translation" : [
                0.47992071509361267,
                1.7936797142028809,
                -0.8902027010917664
            ]
        },
        {
            "mesh" : 6,
            "name" : "Cylinder.004",
            "rotation" : [
                0,
                0.9994059205055237,
                0,
                0.03446535766124725
            ],
            "scale" : [
                1,
                35.23999786376953,
                1
            ],
            "translation" : [
                0.48414841294288635,
                1.7867358922958374,
                -0.8913478255271912
            ]
        },
        {
            "mesh" : 7,
            "name" : "Cylinder.005",
            "rotation" : [
                -0.7066867351531982,
                0.7066866755485535,
                -0.02437068708240986,
                0.024370688945055008
            ],
            "scale" : [
                1,
                6,
                1
            ],
            "translation" : [
                0.6151618361473083,
                1.7843931913375854,
                -0.4853959083557129
            ]
        },
        {
            "mesh" : 8,
            "name" : "Cylinder.006",
            "rotation" : [
                0,
                0.9994059205055237,
                0,
                0.03446535766124725
            ],
            "scale" : [
                1,
                35.23999786376953,
                1
            ],
            "translation" : [
                0.619389533996582,
                1.7798484563827515,
                -0.48449432849884033
            ]
        }
    ],
    "meshes" : [
        {
            "name" : "Cube.003",
            "primitives" : [
                {
                    "attributes" : {
                        "POSITION" : 0,
                        "NORMAL" : 1,
                        "TEXCOORD_0" : 2
                    },
                    "indices" : 3
                }
            ]
        },
        {
            "name" : "Cube.002",
            "primitives" : [
                {
                    "attributes" : {
                        "POSITION" : 4,
                        "NORMAL" : 5,
                        "TEXCOORD_0" : 6
                    },
                    "indices" : 3
                }
            ]
        },
        {
            "name" : "Cube.004",
            "primitives" : [
                {
                    "attributes" : {
                        "POSITION" : 7,
                        "NORMAL" : 8,
                        "TEXCOORD_0" : 9
                    },
                    "indices" : 3
                }
            ]
        },
        {
            "name" : "Cylinder.003",
            "primitives" : [
                {
                    "attributes" : {
                        "POSITION" : 10,
                        "NORMAL" : 11,
                        "TEXCOORD_0" : 12
                    },
                    "indices" : 13
                }
            ]
        },
        {
            "name" : "Cylinder.002",
            "primitives" : [
                {
                    "attributes" : {
                        "POSITION" : 14,
                        "NORMAL" : 15,
                        "TEXCOORD_0" : 16
                    },
                    "indices" : 17
                }
            ]
        },
        {
            "name" : "Cylinder.001",
            "primitives" : [
                {
                    "attributes" : {
                        "POSITION" : 18,
                        "NORMAL" : 19,
                        "TEXCOORD_0" : 20
                    },
                    "indices" : 17
                }
            ]
        },
        {
            "name" : "Cylinder.004",
            "primitives" : [
                {
                    "attributes" : {
                        "POSITION" : 21,
                        "NORMAL" : 22,
                        "TEXCOORD_0" : 23
                    },
                    "indices" : 13
                }
            ]
        },
        {
            "name" : "Cylinder.005",
            "primitives" : [
                {
                    "attributes" : {
                        "POSITION" : 24,
                        "NORMAL" : 25,
                        "TEXCOORD_0" : 26
                    },
                    "indices" : 17
                }
            ]
        },
        {
            "name" : "Cylinder.006",
            "primitives" : [
                {
                    "attributes" : {
                        "POSITION" : 27,
                        "NORMAL" : 28,
                        "TEXCOORD_0" : 29
                    },
                    "indices" : 13
                }
            ]
        }
    ],
    "accessors" : [
        {
            "bufferView" : 0,
            "componentType" : 5126,
            "count" : 262,
            "max" : [
                0.44999998807907104,
                41.2688102722168,
                35.63747024536133
            ],
            "min" : [
                -0.44999998807907104,
                -21.23149871826172,
                -36.084571838378906
            ],
            "type" : "VEC3"
        },
        {
            "bufferView" : 1,
            "componentType" : 5126,
            "count" : 262,
            "type" : "VEC3"
        },
        {
            "bufferView" : 2,
            "componentType" : 5126,
            "count" : 262,
            "type" : "VEC2"
        },
        {
            "bufferView" : 3,
            "componentType" : 5123,
            "count" : 396,
            "type" : "SCALAR"
        },
        {
            "bufferView" : 4,
            "componentType" : 5126,
            "count" : 262,
            "max" : [
                0.44999998807907104,
                41.2688102722168,
                35.63747024536133
            ],
            "min" : [
                -0.44999998807907104,
                -21.23149871826172,
                -36.084571838378906
            ],
            "type" : "VEC3"
        },
        {
            "bufferView" : 5,
            "componentType" : 5126,
            "count" : 262,
            "type" : "VEC3"
        },
        {
            "bufferView" : 6,
            "componentType" : 5126,
            "count" : 262,
            "type" : "VEC2"
        },
        {
            "bufferView" : 7,
            "componentType" : 5126,
            "count" : 262,
            "max" : [
                0.44999998807907104,
                41.2688102722168,
                35.63747024536133
            ],
            "min" : [
                -0.44999998807907104,
                -21.23149871826172,
                -36.084571838378906
            ],
            "type" : "VEC3"
        },
        {
            "bufferView" : 8,
            "componentType" : 5126,
            "count" : 262,
            "type" : "VEC3"
        },
        {
            "bufferView" : 9,
            "componentType" : 5126,
            "count" : 262,
            "type" : "VEC2"
        },
        {
            "bufferView" : 10,
            "componentType" : 5126,
            "count" : 72,
            "max" : [
                0.01663197949528694,
                -2.7939677238464355e-09,
                0.017917461693286896
            ],
            "min" : [
                -0.017986556515097618,
                -0.010000002570450306,
                -0.016701074317097664
            ],
            "type" : "VEC3"
        },
        {
            "bufferView" : 11,
            "componentType" : 5126,
            "count" : 72,
            "type" : "VEC3"
        },
        {
            "bufferView" : 12,
            "componentType" : 5126,
            "count" : 72,
            "type" : "VEC2"
        },
        {
            "bufferView" : 13,
            "componentType" : 5123,
            "count" : 132,
            "type" : "SCALAR"
        },
        {
            "bufferView" : 14,
            "componentType" : 5126,
            "count" : 216,
            "max" : [
                0.010842147283256054,
                0.004999999888241291,
                0.010842147283256054
            ],
            "min" : [
                -0.010842147283256054,
                -0.004999999888241291,
                -0.010842147283256054
            ],
            "type" : "VEC3"
        },
        {
            "bufferView" : 15,
            "componentType" : 5126,
            "count" : 216,
            "type" : "VEC3"
        },
        {
            "bufferView" : 16,
            "componentType" : 5126,
            "count" : 216,
            "type" : "VEC2"
        },
        {
            "bufferView" : 17,
            "componentType" : 5123,
            "count" : 348,
            "type" : "SCALAR"
        },
        {
            "bufferView" : 18,
            "componentType" : 5126,
            "count" : 216,
            "max" : [
                0.010842147283256054,
                0.004999999888241291,
                0.010842147283256054
            ],
            "min" : [
                -0.010842147283256054,
                -0.004999999888241291,
                -0.010842147283256054
            ],
            "type" : "VEC3"
        },
        {
            "bufferView" : 19,
            "componentType" : 5126,
            "count" : 216,
            "type" : "VEC3"
        },
        {
            "bufferView" : 20,
            "componentType" : 5126,
            "count" : 216,
            "type" : "VEC2"
        },
        {
            "bufferView" : 21,
            "componentType" : 5126,
            "count" : 72,
            "max" : [
                0.01663197949528694,
                -2.7939677238464355e-09,
                0.017917461693286896
            ],
            "min" : [
                -0.017986556515097618,
                -0.010000002570450306,
                -0.016701074317097664
            ],
            "type" : "VEC3"
        },
        {
            "bufferView" : 22,
            "componentType" : 5126,
            "count" : 72,
            "type" : "VEC3"
        },
        {
            "bufferView" : 23,
            "componentType" : 5126,
            "count" : 72,
            "type" : "VEC2"
        },
        {
            "bufferView" : 24,
            "componentType" : 5126,
            "count" : 216,
            "max" : [
                0.010842147283256054,
                0.004999999888241291,
                0.010842147283256054
            ],
            "min" : [
                -0.010842147283256054,
                -0.004999999888241291,
                -0.010842147283256054
            ],
            "type" : "VEC3"
        },
        {
            "bufferView" : 25,
            "componentType" : 5126,
            "count" : 216,
            "type" : "VEC3"
        },
        {
            "bufferView" : 26,
            "componentType" : 5126,
            "count" : 216,
            "type" : "VEC2"
        },
        {
            "bufferView" : 27,
            "componentType" : 5126,
            "count" : 72,
            "max" : [
                0.01663197949528694,
                -2.7939677238464355e-09,
                0.017917461693286896
            ],
            "min" : [
                -0.017986556515097618,
                -0.010000002570450306,
                -0.016701074317097664
            ],
            "type" : "VEC3"
        },
        {
            "bufferView" : 28,
            "componentType" : 5126,
            "count" : 72,
            "type" : "VEC3"
        },
        {
            "bufferView" : 29,
            "componentType" : 5126,
            "count" : 72,
            "type" : "VEC2"
        }
    ],
    "bufferViews" : [
        {
            "buffer" : 0,
            "byteLength" : 3144,
            "byteOffset" : 0
        },
        {
            "buffer" : 0,
            "byteLength" : 3144,
            "byteOffset" : 3144
        },
        {
            "buffer" : 0,
            "byteLength" : 2096,
            "byteOffset" : 6288
        },
        {
            "buffer" : 0,
            "byteLength" : 792,
            "byteOffset" : 8384
        },
        {
            "buffer" : 0,
            "byteLength" : 3144,
            "byteOffset" : 9176
        },
        {
            "buffer" : 0,
            "byteLength" : 3144,
            "byteOffset" : 12320
        },
        {
            "buffer" : 0,
            "byteLength" : 2096,
            "byteOffset" : 15464
        },
        {
            "buffer" : 0,
            "byteLength" : 3144,
            "byteOffset" : 17560
        },
        {
            "buffer" : 0,
            "byteLength" : 3144,
            "byteOffset" : 20704
        },
        {
            "buffer" : 0,
            "byteLength" : 2096,
            "byteOffset" : 23848
        },
        {
            "buffer" : 0,
            "byteLength" : 864,
            "byteOffset" : 25944
        },
        {
            "buffer" : 0,
            "byteLength" : 864,
            "byteOffset" : 26808
        },
        {
            "buffer" : 0,
            "byteLength" : 576,
            "byteOffset" : 27672
        },
        {
            "buffer" : 0,
            "byteLength" : 264,
            "byteOffset" : 28248
        },
        {
            "buffer" : 0,
            "byteLength" : 2592,
            "byteOffset" : 28512
        },
        {
            "buffer" : 0,
            "byteLength" : 2592,
            "byteOffset" : 31104
        },
        {
            "buffer" : 0,
            "byteLength" : 1728,
            "byteOffset" : 33696
        },
        {
            "buffer" : 0,
            "byteLength" : 696,
            "byteOffset" : 35424
        },
        {
            "buffer" : 0,
            "byteLength" : 2592,
            "byteOffset" : 36120
        },
        {
            "buffer" : 0,
            "byteLength" : 2592,
            "byteOffset" : 38712
        },
        {
            "buffer" : 0,
            "byteLength" : 1728,
            "byteOffset" : 41304
        },
        {
            "buffer" : 0,
            "byteLength" : 864,
            "byteOffset" : 43032
        },
        {
            "buffer" : 0,
            "byteLength" : 864,
            "byteOffset" : 43896
        },
        {
            "buffer" : 0,
            "byteLength" : 576,
            "byteOffset" : 44760
        },
        {
            "buffer" : 0,
            "byteLength" : 2592,
            "byteOffset" : 45336
        },
        {
            "buffer" : 0,
            "byteLength" : 2592,
            "byteOffset" : 47928
        },
        {
            "buffer" : 0,
            "byteLength" : 1728,
            "byteOffset" : 50520
        },
        {
            "buffer" : 0,
            "byteLength" : 864,
            "byteOffset" : 52248
        },
        {
            "buffer" : 0,
            "byteLength" : 864,
            "byteOffset" : 53112
        },
        {
            "buffer" : 0,
            "byteLength" : 576,
            "byteOffset" : 53976
        }
    ],
    "buffers" : [
        {
            "byteLength" : 54552,
            "uri" : "data:application/octet-stream;base64,"
        }
    ]
}
