{
    "asset" : {
        "generator" : "Khronos glTF Blender I/O v1.0.5",
        "version" : "2.0"
    },
    "scene" : 0,
    "scenes" : [
        {
            "extras" : {
                "AutoMirror_axis" : 1
            },
            "name" : "Scene",
            "nodes" : [
                0,
                1,
                2,
                3,
                4,
                5
            ]
        },
        {
            "extras" : {},
            "name" : "Scene.001"
        }
    ],
    "nodes" : [
        {
            "mesh" : 0,
            "name" : "windmill_rotor",
            "rotation" : [
                0,
                0.95478355884552,
                0,
                -0.2973017692565918
            ],
            "scale" : [
                0.004087680485099554,
                0.004087680485099554,
                0.004087680485099554
            ],
            "translation" : [
                0.7726361155509949,
                2.4727303981781006,
                -0.7531854510307312
            ]
        },
        {
            "mesh" : 1,
            "name" : "windmill_body",
            "rotation" : [
                -0.6751339435577393,
                0.6751338839530945,
                0.21022407710552216,
                -0.21022409200668335
            ],
            "scale" : [
                1,
                6,
                1
            ],
            "translation" : [
                0.7892801761627197,
                2.4727303981781006,
                -0.7646645307540894
            ]
        },
        {
            "mesh" : 2,
            "name" : "windmill_rotor.001",
            "rotation" : [
                0,
                0.9418473243713379,
                0,
                -0.336041122674942
            ],
            "scale" : [
                0.004087680485099554,
                0.004087680485099554,
                0.004087680485099554
            ],
            "translation" : [
                0.5474547147750854,
                2.46323561668396,
                -0.7822838425636292
            ]
        },
        {
            "mesh" : 3,
            "name" : "windmill_body.001",
            "rotation" : [
                -0.6659866571426392,
                0.6659865975379944,
                0.23761695623397827,
                -0.23761697113513947
            ],
            "scale" : [
                1,
                6,
                1
            ],
            "translation" : [
                0.5631065368652344,
                2.46323561668396,
                -0.7950827479362488
            ]
        },
        {
            "mesh" : 4,
            "name" : "windmill_rotor.002",
            "rotation" : [
                0,
                0.9390955567359924,
                0,
                -0.34365609288215637
            ],
            "scale" : [
                0.004087680485099554,
                0.004087680485099554,
                0.004087680485099554
            ],
            "translation" : [
                0.4445941150188446,
                2.410428524017334,
                -0.9156343340873718
            ]
        },
        {
            "mesh" : 5,
            "name" : "windmill_body.002",
            "rotation" : [
                -0.6640408635139465,
                0.6640408039093018,
                0.2430015504360199,
                -0.2430015653371811
            ],
            "scale" : [
                1,
                6,
                1
            ],
            "translation" : [
                0.46003666520118713,
                2.410428524017334,
                -0.9286850094795227
            ]
        }
    ],
    "materials" : [
        {
            "doubleSided" : true,
            "name" : "windmill",
            "pbrMetallicRoughness" : {
                "baseColorFactor" : [
                    0.800000011920929,
                    0.800000011920929,
                    0.800000011920929,
                    1
                ],
                "metallicFactor" : 0,
                "roughnessFactor" : 0.5
            }
        }
    ],
    "meshes" : [
        {
            "name" : "Cube.045",
            "primitives" : [
                {
                    "attributes" : {
                        "POSITION" : 0,
                        "NORMAL" : 1,
                        "TEXCOORD_0" : 2
                    },
                    "indices" : 3,
                    "material" : 0
                }
            ]
        },
        {
            "name" : "Cylinder.000",
            "primitives" : [
                {
                    "attributes" : {
                        "POSITION" : 4,
                        "NORMAL" : 5,
                        "TEXCOORD_0" : 6
                    },
                    "indices" : 7,
                    "material" : 0
                }
            ]
        },
        {
            "name" : "Cube.049",
            "primitives" : [
                {
                    "attributes" : {
                        "POSITION" : 8,
                        "NORMAL" : 9,
                        "TEXCOORD_0" : 10
                    },
                    "indices" : 3,
                    "material" : 0
                }
            ]
        },
        {
            "name" : "Cylinder.010",
            "primitives" : [
                {
                    "attributes" : {
                        "POSITION" : 11,
                        "NORMAL" : 12,
                        "TEXCOORD_0" : 13
                    },
                    "indices" : 7,
                    "material" : 0
                }
            ]
        },
        {
            "name" : "Cube.054",
            "primitives" : [
                {
                    "attributes" : {
                        "POSITION" : 14,
                        "NORMAL" : 15,
                        "TEXCOORD_0" : 16
                    },
                    "indices" : 3,
                    "material" : 0
                }
            ]
        },
        {
            "name" : "Cylinder.012",
            "primitives" : [
                {
                    "attributes" : {
                        "POSITION" : 17,
                        "NORMAL" : 18,
                        "TEXCOORD_0" : 19
                    },
                    "indices" : 7,
                    "material" : 0
                }
            ]
        }
    ],
    "accessors" : [
        {
            "bufferView" : 0,
            "componentType" : 5126,
            "count" : 262,
            "max" : [
                0.44999998807907104,
                41.2688102722168,
                35.63747024536133
            ],
            "min" : [
                -0.44999998807907104,
                -21.23149871826172,
                -36.084571838378906
            ],
            "type" : "VEC3"
        },
        {
            "bufferView" : 1,
            "componentType" : 5126,
            "count" : 262,
            "type" : "VEC3"
        },
        {
            "bufferView" : 2,
            "componentType" : 5126,
            "count" : 262,
            "type" : "VEC2"
        },
        {
            "bufferView" : 3,
            "componentType" : 5123,
            "count" : 396,
            "type" : "SCALAR"
        },
        {
            "bufferView" : 4,
            "componentType" : 5126,
            "count" : 288,
            "max" : [
                0.3589819073677063,
                0.004999999888241291,
                0.017309239134192467
            ],
            "min" : [
                -0.010842147283256054,
                -0.004999999888241291,
                -0.017309296876192093
            ],
            "type" : "VEC3"
        },
        {
            "bufferView" : 5,
            "componentType" : 5126,
            "count" : 288,
            "type" : "VEC3"
        },
        {
            "bufferView" : 6,
            "componentType" : 5126,
            "count" : 288,
            "type" : "VEC2"
        },
        {
            "bufferView" : 7,
            "componentType" : 5123,
            "count" : 480,
            "type" : "SCALAR"
        },
        {
            "bufferView" : 8,
            "componentType" : 5126,
            "count" : 262,
            "max" : [
                0.44999998807907104,
                41.2688102722168,
                35.63747024536133
            ],
            "min" : [
                -0.44999998807907104,
                -21.23149871826172,
                -36.084571838378906
            ],
            "type" : "VEC3"
        },
        {
            "bufferView" : 9,
            "componentType" : 5126,
            "count" : 262,
            "type" : "VEC3"
        },
        {
            "bufferView" : 10,
            "componentType" : 5126,
            "count" : 262,
            "type" : "VEC2"
        },
        {
            "bufferView" : 11,
            "componentType" : 5126,
            "count" : 288,
            "max" : [
                0.3589819073677063,
                0.004999999888241291,
                0.017309239134192467
            ],
            "min" : [
                -0.010842147283256054,
                -0.004999999888241291,
                -0.017309296876192093
            ],
            "type" : "VEC3"
        },
        {
            "bufferView" : 12,
            "componentType" : 5126,
            "count" : 288,
            "type" : "VEC3"
        },
        {
            "bufferView" : 13,
            "componentType" : 5126,
            "count" : 288,
            "type" : "VEC2"
        },
        {
            "bufferView" : 14,
            "componentType" : 5126,
            "count" : 262,
            "max" : [
                0.44999998807907104,
                41.2688102722168,
                35.63747024536133
            ],
            "min" : [
                -0.44999998807907104,
                -21.23149871826172,
                -36.084571838378906
            ],
            "type" : "VEC3"
        },
        {
            "bufferView" : 15,
            "componentType" : 5126,
            "count" : 262,
            "type" : "VEC3"
        },
        {
            "bufferView" : 16,
            "componentType" : 5126,
            "count" : 262,
            "type" : "VEC2"
        },
        {
            "bufferView" : 17,
            "componentType" : 5126,
            "count" : 288,
            "max" : [
                0.3589819073677063,
                0.004999999888241291,
                0.017309239134192467
            ],
            "min" : [
                -0.010842147283256054,
                -0.004999999888241291,
                -0.017309296876192093
            ],
            "type" : "VEC3"
        },
        {
            "bufferView" : 18,
            "componentType" : 5126,
            "count" : 288,
            "type" : "VEC3"
        },
        {
            "bufferView" : 19,
            "componentType" : 5126,
            "count" : 288,
            "type" : "VEC2"
        }
    ],
    "bufferViews" : [
        {
            "buffer" : 0,
            "byteLength" : 3144,
            "byteOffset" : 0
        },
        {
            "buffer" : 0,
            "byteLength" : 3144,
            "byteOffset" : 3144
        },
        {
            "buffer" : 0,
            "byteLength" : 2096,
            "byteOffset" : 6288
        },
        {
            "buffer" : 0,
            "byteLength" : 792,
            "byteOffset" : 8384
        },
        {
            "buffer" : 0,
            "byteLength" : 3456,
            "byteOffset" : 9176
        },
        {
            "buffer" : 0,
            "byteLength" : 3456,
            "byteOffset" : 12632
        },
        {
            "buffer" : 0,
            "byteLength" : 2304,
            "byteOffset" : 16088
        },
        {
            "buffer" : 0,
            "byteLength" : 960,
            "byteOffset" : 18392
        },
        {
            "buffer" : 0,
            "byteLength" : 3144,
            "byteOffset" : 19352
        },
        {
            "buffer" : 0,
            "byteLength" : 3144,
            "byteOffset" : 22496
        },
        {
            "buffer" : 0,
            "byteLength" : 2096,
            "byteOffset" : 25640
        },
        {
            "buffer" : 0,
            "byteLength" : 3456,
            "byteOffset" : 27736
        },
        {
            "buffer" : 0,
            "byteLength" : 3456,
            "byteOffset" : 31192
        },
        {
            "buffer" : 0,
            "byteLength" : 2304,
            "byteOffset" : 34648
        },
        {
            "buffer" : 0,
            "byteLength" : 3144,
            "byteOffset" : 36952
        },
        {
            "buffer" : 0,
            "byteLength" : 3144,
            "byteOffset" : 40096
        },
        {
            "buffer" : 0,
            "byteLength" : 2096,
            "byteOffset" : 43240
        },
        {
            "buffer" : 0,
            "byteLength" : 3456,
            "byteOffset" : 45336
        },
        {
            "buffer" : 0,
            "byteLength" : 3456,
            "byteOffset" : 48792
        },
        {
            "buffer" : 0,
            "byteLength" : 2304,
            "byteOffset" : 52248
        }
    ],
    "buffers" : [
        {
            "byteLength" : 54552,
            "uri" : "data:application/octet-stream;base64,"
        }
    ]
}
