{
    "asset" : {
        "generator" : "Khronos glTF Blender I/O v1.0.5",
        "version" : "2.0"
    },
    "scene" : 0,
    "scenes" : [
        {
            "name" : "Scene",
            "nodes" : [
                0,
                1
            ]
        }
    ],
    "nodes" : [
        {
            "mesh" : 0,
            "name" : "world",
            "scale" : [
                0.0005994790699332952,
                0.0005994790699332952,
                0.0005994790699332952
            ],
            "translation" : [
                -0.0010348348878324032,
                1.4548856019973755,
                0
            ]
        },
        {
            "mesh" : 1,
            "name" : "worldbox",
            "scale" : [
                1.5831643342971802,
                0.3085409700870514,
                1.5762823820114136
            ],
            "translation" : [
                0,
                1.5048298835754395,
                0
            ]
        }
    ],
    "materials" : [
        {
            "doubleSided" : true,
            "name" : "grass",
            "pbrMetallicRoughness" : {
                "baseColorFactor" : [
                    0.19915908575057983,
                    0.4575362503528595,
                    0.035162582993507385,
                    1
                ],
                "metallicFactor" : 0,
                "roughnessFactor" : 0.5
            }
        },
        {
            "doubleSided" : true,
            "name" : "dirt",
            "pbrMetallicRoughness" : {
                "baseColorFactor" : [
                    0.09462746977806091,
                    0.08488890528678894,
                    0.07062437385320663,
                    1
                ],
                "metallicFactor" : 0,
                "roughnessFactor" : 0.5
            }
        },
        {
            "doubleSided" : true,
            "name" : "snow",
            "pbrMetallicRoughness" : {
                "baseColorFactor" : [
                    0.800000011920929,
                    0.800000011920929,
                    0.800000011920929,
                    1
                ],
                "metallicFactor" : 0,
                "roughnessFactor" : 0.5
            }
        },
        {
            "doubleSided" : true,
            "name" : "Material.008",
            "pbrMetallicRoughness" : {
                "baseColorTexture" : {
                    "index" : 0,
                    "texCoord" : 0
                },
                "metallicFactor" : 0,
                "roughnessFactor" : 0.5
            }
        }
    ],
    "meshes" : [
        {
            "name" : "Plane",
            "primitives" : [
                {
                    "attributes" : {
                        "POSITION" : 0,
                        "NORMAL" : 1,
                        "TEXCOORD_0" : 2
                    },
                    "indices" : 3,
                    "material" : 0
                },
                {
                    "attributes" : {
                        "POSITION" : 4,
                        "NORMAL" : 5,
                        "TEXCOORD_0" : 6
                    },
                    "indices" : 7,
                    "material" : 1
                },
                {
                    "attributes" : {
                        "POSITION" : 8,
                        "NORMAL" : 9,
                        "TEXCOORD_0" : 10
                    },
                    "indices" : 11,
                    "material" : 2
                }
            ]
        },
        {
            "name" : "Cube",
            "primitives" : [
                {
                    "attributes" : {
                        "POSITION" : 12,
                        "NORMAL" : 13,
                        "TEXCOORD_0" : 14
                    },
                    "indices" : 15,
                    "material" : 3
                }
            ]
        }
    ],
    "textures" : [
        {
            "source" : 0
        }
    ],
    "images" : [
        {
            "bufferView" : 16,
            "mimeType" : "image/jpeg",
            "name" : "tre"
        }
    ],
    "accessors" : [
        {
            "bufferView" : 0,
            "componentType" : 5126,
            "count" : 5410,
            "max" : [
                2031.2501220703125,
                158.77874755859375,
                2031.250244140625
            ],
            "min" : [
                -2031.250244140625,
                -102.2318115234375,
                -2031.250244140625
            ],
            "type" : "VEC3"
        },
        {
            "bufferView" : 1,
            "componentType" : 5126,
            "count" : 5410,
            "type" : "VEC3"
        },
        {
            "bufferView" : 2,
            "componentType" : 5126,
            "count" : 5410,
            "type" : "VEC2"
        },
        {
            "bufferView" : 3,
            "componentType" : 5123,
            "count" : 6366,
            "type" : "SCALAR"
        },
        {
            "bufferView" : 4,
            "componentType" : 5126,
            "count" : 2288,
            "max" : [
                2500.000244140625,
                849.7011108398438,
                2500.000244140625
            ],
            "min" : [
                -2500.000244140625,
                -52.7622184753418,
                -2500.000244140625
            ],
            "type" : "VEC3"
        },
        {
            "bufferView" : 5,
            "componentType" : 5126,
            "count" : 2288,
            "type" : "VEC3"
        },
        {
            "bufferView" : 6,
            "componentType" : 5126,
            "count" : 2288,
            "type" : "VEC2"
        },
        {
            "bufferView" : 7,
            "componentType" : 5123,
            "count" : 2295,
            "type" : "SCALAR"
        },
        {
            "bufferView" : 8,
            "componentType" : 5126,
            "count" : 363,
            "max" : [
                2500.000244140625,
                946.332275390625,
                2500.000244140625
            ],
            "min" : [
                -2500.000244140625,
                345.6683654785156,
                -2500.000244140625
            ],
            "type" : "VEC3"
        },
        {
            "bufferView" : 9,
            "componentType" : 5126,
            "count" : 363,
            "type" : "VEC3"
        },
        {
            "bufferView" : 10,
            "componentType" : 5126,
            "count" : 363,
            "type" : "VEC2"
        },
        {
            "bufferView" : 11,
            "componentType" : 5123,
            "count" : 363,
            "type" : "SCALAR"
        },
        {
            "bufferView" : 12,
            "componentType" : 5126,
            "count" : 20,
            "max" : [
                1,
                1,
                1
            ],
            "min" : [
                -1,
                -1,
                -1
            ],
            "type" : "VEC3"
        },
        {
            "bufferView" : 13,
            "componentType" : 5126,
            "count" : 20,
            "type" : "VEC3"
        },
        {
            "bufferView" : 14,
            "componentType" : 5126,
            "count" : 20,
            "type" : "VEC2"
        },
        {
            "bufferView" : 15,
            "componentType" : 5123,
            "count" : 30,
            "type" : "SCALAR"
        }
    ],
    "bufferViews" : [
        {
            "buffer" : 0,
            "byteLength" : 64920,
            "byteOffset" : 0
        },
        {
            "buffer" : 0,
            "byteLength" : 64920,
            "byteOffset" : 64920
        },
        {
            "buffer" : 0,
            "byteLength" : 43280,
            "byteOffset" : 129840
        },
        {
            "buffer" : 0,
            "byteLength" : 12732,
            "byteOffset" : 173120
        },
        {
            "buffer" : 0,
            "byteLength" : 27456,
            "byteOffset" : 185852
        },
        {
            "buffer" : 0,
            "byteLength" : 27456,
            "byteOffset" : 213308
        },
        {
            "buffer" : 0,
            "byteLength" : 18304,
            "byteOffset" : 240764
        },
        {
            "buffer" : 0,
            "byteLength" : 4590,
            "byteOffset" : 259068
        },
        {
            "buffer" : 0,
            "byteLength" : 4356,
            "byteOffset" : 263660
        },
        {
            "buffer" : 0,
            "byteLength" : 4356,
            "byteOffset" : 268016
        },
        {
            "buffer" : 0,
            "byteLength" : 2904,
            "byteOffset" : 272372
        },
        {
            "buffer" : 0,
            "byteLength" : 726,
            "byteOffset" : 275276
        },
        {
            "buffer" : 0,
            "byteLength" : 240,
            "byteOffset" : 276004
        },
        {
            "buffer" : 0,
            "byteLength" : 240,
            "byteOffset" : 276244
        },
        {
            "buffer" : 0,
            "byteLength" : 160,
            "byteOffset" : 276484
        },
        {
            "buffer" : 0,
            "byteLength" : 60,
            "byteOffset" : 276644
        },
        {
            "buffer" : 0,
            "byteLength" : 6198,
            "byteOffset" : 276704
        }
    ],
    "buffers" : [
        {
            "byteLength" : 282904,
            "uri" : "data:application/octet-stream;base64,"
        }
    ]
}
