{
    "asset" : {
        "generator" : "Khronos glTF Blender I/O v1.0.5",
        "version" : "2.0"
    },
    "scene" : 0,
    "scenes" : [
        {
            "name" : "Scene",
            "nodes" : [
                0,
                1
            ]
        }
    ],
    "nodes" : [
        {
            "mesh" : 0,
            "name" : "world_surface",
            "scale" : [
                0.0005994790699332952,
                0.0005994790699332952,
                0.0005994790699332952
            ],
            "translation" : [
                0,
                1.9824426174163818,
                0
            ]
        },
        {
            "mesh" : 1,
            "name" : "world_box",
            "scale" : [
                1.600000023841858,
                0.21804063022136688,
                1.600000023841858
            ],
            "translation" : [
                0,
                2.14039945602417,
                0
            ]
        }
    ],
    "materials" : [
        {
            "doubleSided" : true,
            "name" : "grass.001",
            "pbrMetallicRoughness" : {
                "baseColorFactor" : [
                    0.31291663646698,
                    0.4575362503528595,
                    0.08372454345226288,
                    1
                ],
                "metallicFactor" : 0,
                "roughnessFactor" : 0.8999999761581421
            }
        },
        {
            "doubleSided" : true,
            "name" : "dirt.001",
            "pbrMetallicRoughness" : {
                "baseColorFactor" : [
                    0.1901782751083374,
                    0.16983233392238617,
                    0.14013949036598206,
                    1
                ],
                "metallicFactor" : 0,
                "roughnessFactor" : 1
            }
        },
        {
            "doubleSided" : true,
            "name" : "snow.001",
            "pbrMetallicRoughness" : {
                "baseColorFactor" : [
                    0.800000011920929,
                    0.800000011920929,
                    0.800000011920929,
                    1
                ],
                "metallicFactor" : 0,
                "roughnessFactor" : 0.5
            }
        },
        {
            "doubleSided" : true,
            "name" : "Material.005",
            "pbrMetallicRoughness" : {
                "baseColorFactor" : [
                    0.34191441535949707,
                    0.22696588933467865,
                    0.15592648088932037,
                    1
                ],
                "metallicFactor" : 0,
                "roughnessFactor" : 1
            }
        }
    ],
    "meshes" : [
        {
            "name" : "Plane",
            "primitives" : [
                {
                    "attributes" : {
                        "POSITION" : 0,
                        "NORMAL" : 1,
                        "TEXCOORD_0" : 2
                    },
                    "indices" : 3,
                    "material" : 0
                },
                {
                    "attributes" : {
                        "POSITION" : 4,
                        "NORMAL" : 5,
                        "TEXCOORD_0" : 6
                    },
                    "indices" : 7,
                    "material" : 1
                },
                {
                    "attributes" : {
                        "POSITION" : 8,
                        "NORMAL" : 9,
                        "TEXCOORD_0" : 10
                    },
                    "indices" : 11,
                    "material" : 2
                }
            ]
        },
        {
            "name" : "Cube.042",
            "primitives" : [
                {
                    "attributes" : {
                        "POSITION" : 12,
                        "NORMAL" : 13,
                        "TEXCOORD_0" : 14
                    },
                    "indices" : 15,
                    "material" : 3
                }
            ]
        }
    ],
    "accessors" : [
        {
            "bufferView" : 0,
            "componentType" : 5126,
            "count" : 952,
            "max" : [
                2031.2503662109375,
                291.79803466796875,
                2031.25048828125
            ],
            "min" : [
                -2031.25048828125,
                -9.505267143249512,
                -2031.25048828125
            ],
            "type" : "VEC3"
        },
        {
            "bufferView" : 1,
            "componentType" : 5126,
            "count" : 952,
            "type" : "VEC3"
        },
        {
            "bufferView" : 2,
            "componentType" : 5126,
            "count" : 952,
            "type" : "VEC2"
        },
        {
            "bufferView" : 3,
            "componentType" : 5123,
            "count" : 1110,
            "type" : "SCALAR"
        },
        {
            "bufferView" : 4,
            "componentType" : 5126,
            "count" : 2295,
            "max" : [
                2500.00048828125,
                655.0126953125,
                2500.00048828125
            ],
            "min" : [
                -2500.00048828125,
                102.29698181152344,
                -2500.00048828125
            ],
            "type" : "VEC3"
        },
        {
            "bufferView" : 5,
            "componentType" : 5126,
            "count" : 2295,
            "type" : "VEC3"
        },
        {
            "bufferView" : 6,
            "componentType" : 5126,
            "count" : 2295,
            "type" : "VEC2"
        },
        {
            "bufferView" : 7,
            "componentType" : 5123,
            "count" : 2295,
            "type" : "SCALAR"
        },
        {
            "bufferView" : 8,
            "componentType" : 5126,
            "count" : 363,
            "max" : [
                2500.00048828125,
                704.6116943359375,
                2500.00048828125
            ],
            "min" : [
                -2500.00048828125,
                402.6544189453125,
                -2500.00048828125
            ],
            "type" : "VEC3"
        },
        {
            "bufferView" : 9,
            "componentType" : 5126,
            "count" : 363,
            "type" : "VEC3"
        },
        {
            "bufferView" : 10,
            "componentType" : 5126,
            "count" : 363,
            "type" : "VEC2"
        },
        {
            "bufferView" : 11,
            "componentType" : 5123,
            "count" : 363,
            "type" : "SCALAR"
        },
        {
            "bufferView" : 12,
            "componentType" : 5126,
            "count" : 56,
            "max" : [
                1,
                1,
                1
            ],
            "min" : [
                -1,
                -1,
                -1
            ],
            "type" : "VEC3"
        },
        {
            "bufferView" : 13,
            "componentType" : 5126,
            "count" : 56,
            "type" : "VEC3"
        },
        {
            "bufferView" : 14,
            "componentType" : 5126,
            "count" : 56,
            "type" : "VEC2"
        },
        {
            "bufferView" : 15,
            "componentType" : 5123,
            "count" : 84,
            "type" : "SCALAR"
        }
    ],
    "bufferViews" : [
        {
            "buffer" : 0,
            "byteLength" : 11424,
            "byteOffset" : 0
        },
        {
            "buffer" : 0,
            "byteLength" : 11424,
            "byteOffset" : 11424
        },
        {
            "buffer" : 0,
            "byteLength" : 7616,
            "byteOffset" : 22848
        },
        {
            "buffer" : 0,
            "byteLength" : 2220,
            "byteOffset" : 30464
        },
        {
            "buffer" : 0,
            "byteLength" : 27540,
            "byteOffset" : 32684
        },
        {
            "buffer" : 0,
            "byteLength" : 27540,
            "byteOffset" : 60224
        },
        {
            "buffer" : 0,
            "byteLength" : 18360,
            "byteOffset" : 87764
        },
        {
            "buffer" : 0,
            "byteLength" : 4590,
            "byteOffset" : 106124
        },
        {
            "buffer" : 0,
            "byteLength" : 4356,
            "byteOffset" : 110716
        },
        {
            "buffer" : 0,
            "byteLength" : 4356,
            "byteOffset" : 115072
        },
        {
            "buffer" : 0,
            "byteLength" : 2904,
            "byteOffset" : 119428
        },
        {
            "buffer" : 0,
            "byteLength" : 726,
            "byteOffset" : 122332
        },
        {
            "buffer" : 0,
            "byteLength" : 672,
            "byteOffset" : 123060
        },
        {
            "buffer" : 0,
            "byteLength" : 672,
            "byteOffset" : 123732
        },
        {
            "buffer" : 0,
            "byteLength" : 448,
            "byteOffset" : 124404
        },
        {
            "buffer" : 0,
            "byteLength" : 168,
            "byteOffset" : 124852
        }
    ],
    "buffers" : [
        {
            "byteLength" : 125020,
            "uri" : "data:application/octet-stream;base64,"
        }
    ]
}
