{
    "asset" : {
        "generator" : "Khronos glTF Blender I/O v1.0.5",
        "version" : "2.0"
    },
    "scene" : 0,
    "scenes" : [
        {
            "name" : "Scene",
            "nodes" : [
                0,
                1,
                2,
                3,
                4,
                5,
                6
            ]
        }
    ],
    "nodes" : [
        {
            "name" : "Light",
            "rotation" : [
                0.16907575726509094,
                0.7558803558349609,
                -0.27217137813568115,
                0.570947527885437
            ],
            "translation" : [
                4.076245307922363,
                5.903861999511719,
                -1.0054539442062378
            ]
        },
        {
            "name" : "Camera",
            "rotation" : [
                0.483536034822464,
                0.33687159419059753,
                -0.20870360732078552,
                0.7804827094078064
            ],
            "translation" : [
                7.358891487121582,
                4.958309173583984,
                6.925790786743164
            ]
        },
        {
            "mesh" : 0,
            "name" : "Cylinder",
            "scale" : [
                0.9988158941268921,
                4,
                1
            ],
            "translation" : [
                0.006597268395125866,
                -0.003805081360042095,
                0.0030717549379915
            ]
        },
        {
            "mesh" : 1,
            "name" : "Cylinder.001",
            "scale" : [
                0.9988158941268921,
                4,
                1
            ],
            "translation" : [
                -0.0059713032096624374,
                -0.003805081360042095,
                0.0030717549379915
            ]
        },
        {
            "mesh" : 2,
            "name" : "Cylinder.002",
            "scale" : [
                0.9988158941268921,
                7.569999694824219,
                1
            ],
            "translation" : [
                -0.005961786489933729,
                -0.0058050816878676414,
                -0.0030959253199398518
            ]
        },
        {
            "mesh" : 3,
            "name" : "Cylinder.003",
            "scale" : [
                0.9988158941268921,
                7.53000020980835,
                1
            ],
            "translation" : [
                0.006376440636813641,
                -0.005805079825222492,
                -0.0031116518657654524
            ]
        },
        {
            "mesh" : 4,
            "name" : "Cube",
            "scale" : [
                0.009999999776482582,
                0.00019999999494757503,
                0.007000000216066837
            ],
            "translation" : [
                -0.005961786489933729,
                -0.0058050816878676414,
                -0.0030959253199398518
            ]
        }
    ],
    "meshes" : [
        {
            "name" : "Cylinder",
            "primitives" : [
                {
                    "attributes" : {
                        "POSITION" : 0,
                        "NORMAL" : 1,
                        "TEXCOORD_0" : 2
                    },
                    "indices" : 3
                }
            ]
        },
        {
            "name" : "Cylinder.001",
            "primitives" : [
                {
                    "attributes" : {
                        "POSITION" : 4,
                        "NORMAL" : 5,
                        "TEXCOORD_0" : 6
                    },
                    "indices" : 3
                }
            ]
        },
        {
            "name" : "Cylinder.002",
            "primitives" : [
                {
                    "attributes" : {
                        "POSITION" : 7,
                        "NORMAL" : 8,
                        "TEXCOORD_0" : 9
                    },
                    "indices" : 3
                }
            ]
        },
        {
            "name" : "Cylinder.003",
            "primitives" : [
                {
                    "attributes" : {
                        "POSITION" : 10,
                        "NORMAL" : 11,
                        "TEXCOORD_0" : 12
                    },
                    "indices" : 3
                }
            ]
        },
        {
            "name" : "Cube",
            "primitives" : [
                {
                    "attributes" : {
                        "POSITION" : 13,
                        "NORMAL" : 14,
                        "TEXCOORD_0" : 15
                    },
                    "indices" : 16
                }
            ]
        }
    ],
    "accessors" : [
        {
            "bufferView" : 0,
            "componentType" : 5126,
            "count" : 36,
            "max" : [
                0.00015588384121656418,
                0.0005000000237487257,
                0.00017999998817685992
            ],
            "min" : [
                -0.00015588532551191747,
                -0.0005000000237487257,
                -0.00017999998817685992
            ],
            "type" : "VEC3"
        },
        {
            "bufferView" : 1,
            "componentType" : 5126,
            "count" : 36,
            "type" : "VEC3"
        },
        {
            "bufferView" : 2,
            "componentType" : 5126,
            "count" : 36,
            "type" : "VEC2"
        },
        {
            "bufferView" : 3,
            "componentType" : 5123,
            "count" : 60,
            "type" : "SCALAR"
        },
        {
            "bufferView" : 4,
            "componentType" : 5126,
            "count" : 36,
            "max" : [
                0.00015588458336424083,
                0.0005000000237487257,
                0.00017999998817685992
            ],
            "min" : [
                -0.00015588458336424083,
                -0.0005000000237487257,
                -0.00017999998817685992
            ],
            "type" : "VEC3"
        },
        {
            "bufferView" : 5,
            "componentType" : 5126,
            "count" : 36,
            "type" : "VEC3"
        },
        {
            "bufferView" : 6,
            "componentType" : 5126,
            "count" : 36,
            "type" : "VEC2"
        },
        {
            "bufferView" : 7,
            "componentType" : 5126,
            "count" : 36,
            "max" : [
                0.00014638694119639695,
                0.0009999999310821295,
                0.00017295866564381868
            ],
            "min" : [
                -0.00016538219642825425,
                5.820766091346741e-11,
                -0.00018704129615798593
            ],
            "type" : "VEC3"
        },
        {
            "bufferView" : 8,
            "componentType" : 5126,
            "count" : 36,
            "type" : "VEC3"
        },
        {
            "bufferView" : 9,
            "componentType" : 5126,
            "count" : 36,
            "type" : "VEC2"
        },
        {
            "bufferView" : 10,
            "componentType" : 5126,
            "count" : 36,
            "max" : [
                0.00018026241741608828,
                0.000999999581836164,
                0.00018868522602133453
            ],
            "min" : [
                -0.00013150674931239337,
                -4.656612873077393e-10,
                -0.0001713147503323853
            ],
            "type" : "VEC3"
        },
        {
            "bufferView" : 11,
            "componentType" : 5126,
            "count" : 36,
            "type" : "VEC3"
        },
        {
            "bufferView" : 12,
            "componentType" : 5126,
            "count" : 36,
            "type" : "VEC2"
        },
        {
            "bufferView" : 13,
            "componentType" : 5126,
            "count" : 24,
            "max" : [
                1.6236084699630737,
                46.51068115234375,
                1.3286550045013428
            ],
            "min" : [
                -0.37639153003692627,
                11.4285888671875,
                -0.4573880732059479
            ],
            "type" : "VEC3"
        },
        {
            "bufferView" : 14,
            "componentType" : 5126,
            "count" : 24,
            "type" : "VEC3"
        },
        {
            "bufferView" : 15,
            "componentType" : 5126,
            "count" : 24,
            "type" : "VEC2"
        },
        {
            "bufferView" : 16,
            "componentType" : 5123,
            "count" : 36,
            "type" : "SCALAR"
        }
    ],
    "bufferViews" : [
        {
            "buffer" : 0,
            "byteLength" : 432,
            "byteOffset" : 0
        },
        {
            "buffer" : 0,
            "byteLength" : 432,
            "byteOffset" : 432
        },
        {
            "buffer" : 0,
            "byteLength" : 288,
            "byteOffset" : 864
        },
        {
            "buffer" : 0,
            "byteLength" : 120,
            "byteOffset" : 1152
        },
        {
            "buffer" : 0,
            "byteLength" : 432,
            "byteOffset" : 1272
        },
        {
            "buffer" : 0,
            "byteLength" : 432,
            "byteOffset" : 1704
        },
        {
            "buffer" : 0,
            "byteLength" : 288,
            "byteOffset" : 2136
        },
        {
            "buffer" : 0,
            "byteLength" : 432,
            "byteOffset" : 2424
        },
        {
            "buffer" : 0,
            "byteLength" : 432,
            "byteOffset" : 2856
        },
        {
            "buffer" : 0,
            "byteLength" : 288,
            "byteOffset" : 3288
        },
        {
            "buffer" : 0,
            "byteLength" : 432,
            "byteOffset" : 3576
        },
        {
            "buffer" : 0,
            "byteLength" : 432,
            "byteOffset" : 4008
        },
        {
            "buffer" : 0,
            "byteLength" : 288,
            "byteOffset" : 4440
        },
        {
            "buffer" : 0,
            "byteLength" : 288,
            "byteOffset" : 4728
        },
        {
            "buffer" : 0,
            "byteLength" : 288,
            "byteOffset" : 5016
        },
        {
            "buffer" : 0,
            "byteLength" : 192,
            "byteOffset" : 5304
        },
        {
            "buffer" : 0,
            "byteLength" : 72,
            "byteOffset" : 5496
        }
    ],
    "buffers" : [
        {
            "byteLength" : 5568,
            "uri" : "data:application/octet-stream;base64,"
        }
    ]
}
